<svg xmlns="http://www.w3.org/2000/svg" viewBox="0 0 852 870.8"><defs><style>.cls-1{opacity:0.13;}.cls-2{fill:#323433;}.cls-3{fill:#cbf4ef;}.cls-4{fill:#e6efaf;}.cls-5{fill:#0f75a9;}.cls-6{fill:#234b8c;}.cls-34,.cls-7{fill:#fff;}.cls-8{fill:#4c4c4a;}.cls-16,.cls-18,.cls-35,.cls-9{fill:none;}.cls-10,.cls-9{stroke:#fff;}.cls-10,.cls-16,.cls-18,.cls-34,.cls-35,.cls-9{stroke-miterlimit:10;}.cls-10,.cls-13,.cls-14{fill:#333132;}.cls-11{fill:#586a99;}.cls-12{fill:#8fbaf9;}.cls-13{font-size:37.3px;font-family:BerlinSansFBDemi-Bold, Berlin Sans FB Demi;font-weight:700;}.cls-15{fill:#bcc18f;}.cls-16{stroke:#15bc51;}.cls-17{fill:#15bc51;}.cls-18{stroke:#e856e1;}.cls-19{fill:#e856e1;}.cls-20{fill:#b883dd;}.cls-21{fill:#1ff1b1;}.cls-22{fill:#ebedda;}.cls-23{fill:#f1abaa;}.cls-24{fill:#439e43;}.cls-25{fill:#e0366f;}.cls-26{fill:#f95d73;}.cls-27{fill:#a23bea;}.cls-28{fill:#808689;}.cls-29{fill:#5b5d5e;}.cls-30{fill:#36d887;}.cls-31{fill:#c9d8e2;}.cls-32{fill:#fef7f1;}.cls-33{fill:#465472;}.cls-34,.cls-35{stroke:#000;}.cls-36{fill:#494949;}.cls-37{fill:#c5f7ff;}.cls-38{fill:#f7ceb0;}.cls-39{fill:#e8e2e3;}.cls-40{fill:#98ea96;}.cls-41{fill:#c48255;}.cls-42{fill:#8fd38c;}.cls-43{fill:#d998e5;}.cls-44{fill:#be83cc;}</style></defs><title>Illus2</title><g id="Calque_12" data-name="Calque 12"><ellipse class="cls-1" cx="426" cy="815.3" rx="426" ry="55.5"/></g><g id="Calque_4" data-name="Calque 4"><path class="cls-2" d="M170.72,235.3H646.78A32.22,32.22,0,0,1,679,267.52V622.83a41,41,0,0,1-41,41H178.36a39.86,39.86,0,0,1-39.86-39.86V267.52A32.22,32.22,0,0,1,170.72,235.3Z"/><rect class="cls-3" x="161.5" y="257.3" width="490.5" height="339.5" rx="18.9"/><rect class="cls-4" x="619" y="358.8" width="91" height="94"/><rect class="cls-4" x="123.2" y="456.8" width="66.8" height="69"/><circle class="cls-5" cx="664.5" cy="368.3" r="6.36"/><circle class="cls-6" cx="156.93" cy="464.87" r="4.93"/><path class="cls-7" d="M139,626.51H679a0,0,0,0,1,0,0v0a43.29,43.29,0,0,1-43.29,43.29H182.29A43.29,43.29,0,0,1,139,626.51v0A0,0,0,0,1,139,626.51Z"/><rect class="cls-8" x="411" y="281.8" width="135" height="69" rx="12"/><rect class="cls-8" x="467" y="356.8" width="141" height="69" rx="12"/><path class="cls-8" d="M575,415.8h19a0,0,0,0,1,0,0v19a0,0,0,0,1,0,0h0a19,19,0,0,1-19-19v0A0,0,0,0,1,575,415.8Z"/><path class="cls-8" d="M544,425h19a0,0,0,0,1,0,0v19a0,0,0,0,1,0,0h0a19,19,0,0,1-19-19v0A0,0,0,0,1,544,425Z" transform="translate(7 904.8) rotate(-90)"/><line class="cls-9" x1="429" y1="300.8" x2="520" y2="300.8"/><line class="cls-9" x1="429" y1="309.8" x2="474" y2="309.8"/><line class="cls-9" x1="429" y1="318.8" x2="505" y2="318.8"/><line class="cls-10" x1="490" y1="371.8" x2="591" y2="371.8"/><line class="cls-9" x1="429" y1="329.8" x2="530" y2="329.8"/><line class="cls-10" x1="508" y1="383.8" x2="591" y2="383.8"/><line class="cls-9" x1="484" y1="395.8" x2="591" y2="395.8"/><line class="cls-9" x1="533" y1="406.8" x2="590" y2="406.8"/><path class="cls-11" d="M395,461.09l68.39-9c5.1,36.37-21.56,70.38-59.07,75.33s-72.59-20.9-77.7-57.27,21.56-70.38,59.07-75.34a73,73,0,0,1,8.09-.6Z" transform="translate(-112 -83.2)"/><path class="cls-12" d="M399.57,456.4l-1.27-69.71c30.76.51,58.21,22.75,66.31,53.73.56,2.16,1,4.34,1.39,6.54Z" transform="translate(-112 -83.2)"/><text class="cls-13" transform="translate(264.43 554.23) scale(0.9 1)">A+B=C </text><circle class="cls-14" cx="320.5" cy="473.3" r="8.5"/><circle class="cls-14" cx="312" cy="493.8" r="4"/><circle class="cls-14" cx="326" cy="513.8" r="3"/><rect class="cls-15" x="619" y="358.8" width="1" height="94"/><rect class="cls-15" x="776" y="490" width="1" height="91" transform="translate(1200 -324.2) rotate(90)"/><rect class="cls-15" x="189" y="456.8" width="1" height="69"/><rect class="cls-15" x="268" y="575" width="1" height="67" transform="translate(765 256.8) rotate(90)"/></g><g id="Calque_9" data-name="Calque 9"><polyline class="cls-16" points="191.72 598.71 208.99 513.75 235.31 473.67"/><ellipse class="cls-17" cx="351.83" cy="568.44" rx="14.51" ry="5.18" transform="translate(-271.6 54.72) rotate(-18.15)"/><ellipse class="cls-17" cx="327.14" cy="566.49" rx="5.63" ry="12.9" transform="translate(-438.9 470.69) rotate(-58.89)"/><ellipse class="cls-17" cx="315.33" cy="669.44" rx="10.25" ry="3.42" transform="translate(-304.88 48.37) rotate(-18.15)"/><ellipse class="cls-17" cx="323.83" cy="642.44" rx="14.51" ry="5.18" transform="translate(-315.98 70.35) rotate(-20.44)"/><ellipse class="cls-17" cx="302.14" cy="637.49" rx="5.63" ry="12.9" transform="translate(-511.78 483.6) rotate(-58.89)"/><ellipse class="cls-17" cx="330.83" cy="613.44" rx="14.51" ry="5.18" transform="translate(-286.66 50.42) rotate(-18.15)"/><ellipse class="cls-17" cx="315.14" cy="583.49" rx="5.63" ry="12.9" transform="translate(-432.29 310.54) rotate(-45)"/><polyline class="cls-18" points="188.05 595.4 232.56 521.01 270.7 491.94"/><ellipse class="cls-19" cx="383.12" cy="587.56" rx="5.18" ry="14.51" transform="translate(-324.66 874.57) rotate(-88.75)"/><ellipse class="cls-19" cx="360.48" cy="577.52" rx="5.63" ry="12.9" transform="translate(-396.97 277.83) rotate(-39.49)"/><ellipse class="cls-19" cx="315.14" cy="670.7" rx="3.42" ry="10.25" transform="translate(-474.28 887.92) rotate(-88.75)"/><ellipse class="cls-19" cx="332.13" cy="648.06" rx="14.51" ry="5.18" transform="translate(-123.66 -77.09) rotate(-1.04)"/><ellipse class="cls-19" cx="313.31" cy="636.18" rx="5.63" ry="12.9" transform="translate(-445.03 261.22) rotate(-39.49)"/><ellipse class="cls-19" cx="348.36" cy="623.03" rx="5.18" ry="14.51" transform="translate(-394.12 874.51) rotate(-88.75)"/><ellipse class="cls-19" cx="343.52" cy="589.56" rx="5.63" ry="12.9" transform="translate(-332.99 123.06) rotate(-25.6)"/><polyline class="cls-16" points="691.21 382.34 662.16 419.42 643.34 434.16"/><ellipse class="cls-17" cx="757.42" cy="511.21" rx="5.33" ry="2.5" transform="translate(-170.28 16.11) rotate(-7.22)"/><ellipse class="cls-17" cx="763.84" cy="515.85" rx="2.49" ry="5.16" transform="translate(-151.35 -19.49) rotate(-4.66)"/><ellipse class="cls-17" cx="797.03" cy="469.08" rx="3.75" ry="1.65" transform="translate(-158.21 6.1) rotate(-6.23)"/><ellipse class="cls-17" cx="786.79" cy="480.53" rx="5.46" ry="2.44" transform="translate(-183.95 61.9) rotate(-10.08)"/><ellipse class="cls-17" cx="791.49" cy="486.14" rx="2.49" ry="5.16" transform="translate(-148.85 -17.35) rotate(-4.66)"/><ellipse class="cls-17" cx="776.41" cy="493.15" rx="5.33" ry="2.5" transform="translate(-167.85 18.36) rotate(-7.22)"/><ellipse class="cls-17" cx="772.16" cy="509.64" rx="5.85" ry="2.2" transform="translate(66.94 1136.42) rotate(-83.55)"/><polyline class="cls-18" points="692 383.87 657.84 412.24 638.63 420.2"/><ellipse class="cls-19" cx="754.11" cy="497.47" rx="2.87" ry="4.64" transform="translate(-158.08 833.62) rotate(-61.07)"/><ellipse class="cls-19" cx="757.6" cy="505.62" rx="6.11" ry="2.11" transform="translate(14.18 1078.87) rotate(-79.83)"/><ellipse class="cls-19" cx="797.44" cy="468.51" rx="1.89" ry="3.28" transform="translate(-112.37 853.2) rotate(-60.83)"/><ellipse class="cls-19" cx="786.07" cy="476.63" rx="2.85" ry="4.67" transform="translate(-76.07 924.83) rotate(-66.54)"/><ellipse class="cls-19" cx="787.95" cy="485.07" rx="6.11" ry="2.11" transform="translate(59.4 1091.82) rotate(-79.83)"/><ellipse class="cls-19" cx="774.23" cy="485.99" rx="2.87" ry="4.64" transform="translate(-137.65 845.3) rotate(-61.07)"/><ellipse class="cls-19" cx="765.89" cy="502.5" rx="6.65" ry="1.93" transform="translate(-65.62 986.22) rotate(-71.5)"/></g><g id="Calque_8" data-name="Calque 8"><path class="cls-5" d="M203.36,47.35h216A9.64,9.64,0,0,1,429,57v45.39a9.64,9.64,0,0,1-9.64,9.64h-216a0,0,0,0,1,0,0V47.35A0,0,0,0,1,203.36,47.35Z"/><path class="cls-20" d="M151.47,112h218.6a0,0,0,0,1,0,0V165.2a0,0,0,0,1,0,0H151.47a8.47,8.47,0,0,1-8.47-8.47V120.49A8.47,8.47,0,0,1,151.47,112Z"/><path class="cls-21" d="M206.24,165.2H420.83a8.17,8.17,0,0,1,8.17,8.17v51.21a8.17,8.17,0,0,1-8.17,8.17H206.24a0,0,0,0,1,0,0V165.2A0,0,0,0,1,206.24,165.2Z"/><path class="cls-22" d="M203.36,57.41H401.93a7,7,0,0,1,7,7V95a7,7,0,0,1-7,7H203.36a0,0,0,0,1,0,0V57.41A0,0,0,0,1,203.36,57.41Z"/><path class="cls-22" d="M173.25,120.64H370.08a0,0,0,0,1,0,0V153.7a0,0,0,0,1,0,0H173.25a5.82,5.82,0,0,1-5.82-5.82V126.46A5.82,5.82,0,0,1,173.25,120.64Z"/><path class="cls-22" d="M206.24,176.69H405.61a6.14,6.14,0,0,1,6.14,6.14v33.71a6.14,6.14,0,0,1-6.14,6.14H206.24a0,0,0,0,1,0,0v-46A0,0,0,0,1,206.24,176.69Z"/><polygon class="cls-6" points="398.82 119.21 388.76 108.55 378.7 119.21 378.7 89.03 398.82 89.03 398.82 119.21"/><polygon class="cls-23" points="210.55 176.69 201.93 166.63 193.3 176.69 193.3 140.76 210.55 140.76 210.55 176.69"/><polygon class="cls-24" points="378.7 242.8 365.76 231.31 352.83 242.8 352.83 204 378.7 204 378.7 242.8"/><polygon class="cls-4" points="701.55 713.56 685.27 708.67 691.59 687.6 705.29 669.78 707.88 692.48 701.55 713.56"/><rect class="cls-25" x="784.12" y="776.43" width="17" height="121" transform="translate(162.02 -275.71) rotate(16.7)"/><path class="cls-25" d="M814.8,764.76l-1.92-.57a3,3,0,0,1-2-3.74h0l6.42-7.47,1.25,9.77h0A3,3,0,0,1,814.8,764.76Z" transform="translate(-112 -83.2)"/><polygon class="cls-4" points="682.43 719.89 665.97 715.66 671.43 694.35 684.4 676 687.9 698.58 682.43 719.89"/><rect class="cls-21" x="766.65" y="783.58" width="17" height="121" transform="translate(121.98 -249.3) rotate(14.38)"/><path class="cls-21" d="M794.39,771.07l-1.94-.5a3,3,0,0,1-2.16-3.65h0l6.11-7.72,1.64,9.71h0A3,3,0,0,1,794.39,771.07Z" transform="translate(-112 -83.2)"/><polygon class="cls-4" points="669.43 704.89 652.97 700.66 658.43 679.35 671.4 661 674.9 683.58 669.43 704.89"/><rect class="cls-6" x="753.65" y="768.58" width="17" height="121" transform="translate(117.85 -246.54) rotate(14.38)"/><path class="cls-6" d="M781.39,756.07l-1.94-.5a3,3,0,0,1-2.16-3.65h0l6.11-7.72,1.64,9.71h0A3,3,0,0,1,781.39,756.07Z" transform="translate(-112 -83.2)"/><polygon class="cls-4" points="649.43 711.89 632.97 707.66 638.43 686.35 651.4 668 654.9 690.58 649.43 711.89"/><rect class="cls-26" x="733.65" y="775.58" width="17" height="121" transform="translate(118.96 -241.35) rotate(14.38)"/><path class="cls-26" d="M761.39,763.07l-1.94-.5a3,3,0,0,1-2.16-3.65h0l6.11-7.72,1.64,9.71h0A3,3,0,0,1,761.39,763.07Z" transform="translate(-112 -83.2)"/><polygon class="cls-4" points="587.02 715.7 570.43 719.41 565.63 697.94 568.85 675.7 582.22 694.23 587.02 715.7"/><rect class="cls-27" x="691.95" y="783.67" width="17" height="121" transform="translate(-279.51 90.23) rotate(-12.62)"/><path class="cls-27" d="M684.44,770.39l-2,.44a3,3,0,0,1-3.58-2.28h0l1.93-9.65,5.87,7.91h0A3,3,0,0,1,684.44,770.39Z" transform="translate(-112 -83.2)"/><path class="cls-28" d="M568,713.8H703a0,0,0,0,1,0,0V816.92a31.89,31.89,0,0,1-31.89,31.89H599.89A31.89,31.89,0,0,1,568,816.92V713.8A0,0,0,0,1,568,713.8Z"/><path class="cls-29" d="M568,713.8h29.41a0,0,0,0,1,0,0v135a0,0,0,0,1,0,0h0A29.41,29.41,0,0,1,568,819.4V713.8A0,0,0,0,1,568,713.8Z"/><polygon class="cls-4" points="551.64 842.82 551.37 859.81 529.37 859.47 508.5 851.14 529.64 842.47 551.64 842.82"/><rect class="cls-30" x="699.5" y="874.71" width="17" height="121" transform="translate(-350.27 1545.16) rotate(-89.1)"/><path class="cls-30" d="M632.52,933.52l0,2a3,3,0,0,1-3,3h0l-8.94-4.14,9.06-3.86h0A3,3,0,0,1,632.52,933.52Z" transform="translate(-112 -83.2)"/></g><g id="Corps"><rect class="cls-7" x="365" y="669.8" width="91" height="64"/><rect class="cls-31" x="365" y="669.8" width="91" height="17"/><rect class="cls-31" x="365" y="722.8" width="91" height="11"/><path class="cls-31" d="M299.29,773.8H521.71a.29.29,0,0,1,.29.29v8.71a0,0,0,0,1,0,0H299a0,0,0,0,1,0,0V774.1A.29.29,0,0,1,299.29,773.8Z"/><path class="cls-32" d="M342.41,733.3H478.59a42.91,42.91,0,0,1,42.91,42.91v6.09a0,0,0,0,1,0,0h-222a0,0,0,0,1,0,0v-6.09A42.91,42.91,0,0,1,342.41,733.3Z"/></g><g id="Calque_11" data-name="Calque 11"><rect class="cls-11" x="130" y="595.8" width="160" height="206"/><rect class="cls-33" x="130" y="595.8" width="19" height="206"/><rect class="cls-2" x="123" y="605.8" width="18" height="6" rx="2.37"/><rect class="cls-2" x="123" y="625.8" width="18" height="6" rx="2.37"/><rect class="cls-2" x="123" y="645.8" width="18" height="6" rx="2.37"/><rect class="cls-2" x="123" y="665.8" width="18" height="6" rx="2.37"/><rect class="cls-2" x="123" y="684.8" width="18" height="6" rx="2.37"/><rect class="cls-2" x="123" y="704.8" width="18" height="6" rx="2.37"/><rect class="cls-2" x="123" y="726.8" width="18" height="6" rx="2.37"/><rect class="cls-2" x="123" y="745.8" width="18" height="6" rx="2.37"/><rect class="cls-2" x="123" y="764.8" width="18" height="6" rx="2.37"/><rect class="cls-2" x="123" y="783.8" width="18" height="6" rx="2.37"/><polygon class="cls-7" points="262 625.8 252 617.8 242 625.8 242 595.8 262 595.8 262 625.8"/></g><g id="Calque_15" data-name="Calque 15"><circle cx="443.92" cy="485.8" r="6.92"/><circle cx="489.23" cy="518.52" r="6.92"/><circle cx="573.55" cy="534.88" r="6.92"/><circle cx="521.95" cy="485.8" r="6.92"/><circle cx="615.08" cy="510.97" r="6.92"/><line class="cls-34" x1="443.29" y1="486.43" x2="488.6" y2="519.15"/><line class="cls-34" x1="521.95" y1="485.8" x2="489.23" y2="517.26"/><line class="cls-34" x1="573.55" y1="534.88" x2="521.95" y2="485.8"/><line class="cls-34" x1="615.08" y1="510.97" x2="573.55" y2="534.88"/><line class="cls-35" x1="450.21" y1="488.32" x2="485.45" y2="513.49"/><line class="cls-35" x1="526.98" y1="485.8" x2="573.55" y2="529.85"/></g><g id="Calque_14" data-name="Calque 14"><rect class="cls-36" x="706.06" y="121.84" width="13.57" height="20.68" rx="5" transform="translate(-82.98 -191.86) rotate(8.9)"/><rect class="cls-37" x="706.87" y="124.28" width="9.16" height="13.84" rx="3" transform="translate(-83.15 -191.66) rotate(8.9)"/><g id="Calque_13" data-name="Calque 13"><path class="cls-38" d="M689.83,95.83v4.69c0,.6.08,1.34.66,1.61a3.35,3.35,0,0,0,1.38.05,2.86,2.86,0,0,1,2.49,1.77,7.8,7.8,0,0,1,.47,3.08c0,1.12-.17,2.54-1.3,2.89a12.17,12.17,0,0,0-1.23.25c-1.24.53-.56,2.37-1.14,3.54a3.72,3.72,0,0,1-2.6,1.54c-4.27,1.09-9.06,1.9-13-.09a18.54,18.54,0,0,1-5.5-5" transform="translate(-112 -83.2)"/><path class="cls-38" d="M689.45,95.83c0,2.38-.4,4.56.78,6.56.17.28.76,0,.94.21,5.46,5.28,3.49,3.14.91,7.27-1.4,2.24-2.56,4.31-5.23,5.41-6.36,2.61-12.44-.63-16.48-5.39-.31-.37-.84.16-.53.53,3.63,4.27,7.14,6.67,12.95,6.25,4-.3,7-.67,9-3.83,1.8-2.84,4.1-3.64,3.34-7.48a4.46,4.46,0,0,0-2-3.27c-1.34-1-.82.25-2.06-.93s-.84-3.42-.85-5.33a.38.38,0,0,0-.75,0Z" transform="translate(-112 -83.2)"/><path class="cls-38" d="M669.57,108.5l-.8-2.07a3.09,3.09,0,0,1-.24-2.35c.52-1.13,2.1-1.31,3.4-1.32,1.14,0,2.58.19,2.88,1.24" transform="translate(-112 -83.2)"/><path class="cls-38" d="M669.93,108.4c-.57-1.5-2.21-4.3.11-5,1.09-.35,3.86-.6,4.41.74.17.44.9.24.72-.2-.76-1.87-3.72-1.76-5.33-1.26-3,.92-1.4,4-.63,6,.17.45.9.26.72-.2Z" transform="translate(-112 -83.2)"/><path class="cls-39" d="M692,305v12.62a1.61,1.61,0,0,0,.18.92c.33.52,1.1.56,1.75.53l20.83-.83a2.81,2.81,0,0,0,1.12-.19,1.93,1.93,0,0,0,.92-1.12c.58-1.66-.43-3.53-2-4.52a10.5,10.5,0,0,0-5.29-1.33,31.69,31.69,0,0,1-5.52-.39,1.67,1.67,0,0,1-.95-.46,1.63,1.63,0,0,1-.23-1l0-3.92" transform="translate(-112 -83.2)"/><path class="cls-39" d="M690.51,305c0,3.9-.74,8.8,0,12.62.27,1.43.38,2,1.68,2.69,2.14,1.14,6.08.09,8.38,0,4.1-.16,8.2-.31,12.3-.49,3.57-.16,7.11-1.88,5-6.16-2.69-5.58-13.56-2.17-13.53-8.37a1.5,1.5,0,0,0-3,0c0,2.59-.77,5.45,1.9,6.7,1.22.56,3.12.47,4.43.54a23.92,23.92,0,0,1,4.22.32q3.2,4.81-.95,4c-2,.75-5.46.22-7.57.31s-5.49.84-7.58.3c-1.71.68-2.49.12-2.32-1.68V305a1.5,1.5,0,0,0-3,0Z" transform="translate(-112 -83.2)"/><path class="cls-39" d="M615.18,284.63a66.85,66.85,0,0,0-10.77,7.5,6.38,6.38,0,0,0-2.31,3c-.55,2.22,1.33,4.25,3.06,5.83l13,11.84a4,4,0,0,0,2.46,1.33c1.88,0,2.73-2.45,1.95-4.07s-2.46-2.66-3.69-4c-2.5-2.75-3-6.64-2.82-10.26a2.6,2.6,0,0,1,.32-1.29c.8-1.22,3-.75,4-1.87" transform="translate(-112 -83.2)"/><path class="cls-39" d="M614.42,283.33c-4.1,2.36-14.37,7.28-13.88,13.15.19,2.32,2,4,3.56,5.58,3.67,3.65,7.64,7.1,11.52,10.52,2.56,2.28,7.63,5.27,8.59-.34.49-2.83-1.58-4.41-3.33-6.24-2-2.09-4.1-5.51-3.41-8.61.62-2.76,1.81-2.26,3.59-3.42,1.61-1.06.11-3.65-1.52-2.6-3.22,2.11-5,1.4-5.07,6a16.44,16.44,0,0,0,1.23,6.5c.84,1.93,2.67,3,3.57,4.7.73.39.8,1,.21,1.82q0,2.79-1.74,0c-1.31-.63-2.54-2.32-3.6-3.29-2.4-2.19-4.82-4.36-7.2-6.57-1.73-1.61-4.09-3.27-2.44-6.52.56-1.1,2.43-2.1,3.37-2.82a72.22,72.22,0,0,1,8.07-5.34,1.5,1.5,0,0,0-1.52-2.59Z" transform="translate(-112 -83.2)"/><path class="cls-40" d="M696.34,202.37,704.85,230a58.34,58.34,0,0,1,1.78,6.72,57.39,57.39,0,0,1,.51,11.94q-.64,25.34-1.3,50.67a6.9,6.9,0,0,1-.71,3.48A2.69,2.69,0,0,1,702,304" transform="translate(-112 -83.2)"/><path class="cls-40" d="M694.89,202.77l7.38,23.93c1.35,4.41,2.9,8.78,3.29,13.4a102.07,102.07,0,0,1,0,11.47l-.65,25.34-.33,12.67c-.06,2.41,1,13.37-2.63,12.95-1.92-.22-1.9,2.78,0,3,7,.81,5.47-9.85,5.58-14l.83-32.16c.23-9.11,1.19-18.4-1.33-27.28C704.18,222,700.87,212,697.78,202c-.57-1.84-3.46-1.05-2.89.8Z" transform="translate(-112 -83.2)"/><path class="cls-40" d="M653.57,204.83l4.24,30.44a8.46,8.46,0,0,1-3.18,9.31c-6.64,6.38-14.41,11.61-21.48,17.57S619.53,275,616.36,283.49a3.57,3.57,0,0,0-.31,2.19,4.08,4.08,0,0,0,1.25,1.71l3.19,3a2.3,2.3,0,0,0,3.71.18q22.53-17.53,44.23-36a13.48,13.48,0,0,0,4-4.58,12.84,12.84,0,0,0,.77-4.57l.66-15.09c0-.27,0-.6-.25-.74s-.63.21-.39.36" transform="translate(-112 -83.2)"/><path class="cls-40" d="M652.13,205.23l2.11,15.22c.75,5.33,2.29,11.16,2.28,16.54,0,5.58-5.53,9-9.45,12.23-3.14,2.57-6.38,5-9.58,7.51-6.6,5.17-13.11,10.65-17.93,17.6-3.07,4.41-7.29,10.11-2.79,14.62,1.42,1.42,3.28,3.91,5.52,4,2.67.12,5.65-3.38,7.47-4.81q11.58-9.11,23-18.47,5.49-4.51,11-9.11c3-2.55,7.11-5.1,9.28-8.48,2-3.1,1.72-6.89,1.87-10.41.16-3.72,1.37-8.91.2-12.46a1.55,1.55,0,0,0-1.85-1.05l-.37.07a1.52,1.52,0,0,0-1.1,1.45l0,.29c-.09,1.93,2.91,1.93,3,0l0-.29-1.11,1.45.38-.08-1.85-1c1.15,3.47-.18,9.89-.38,13.54-.29,5.22-2,8-5.83,11.21q-9.4,8-19,15.8T627.63,286c-1.29,1-4.14,3.82-6.08,3.34-1.37-.34-3.15-3.07-3.47-4.26-.86-3.32,3.73-9,5.76-11.54,9.21-11.57,23-18,32.8-28.88,4.18-4.65,2.62-9.82,1.82-15.53L655,204.43c-.27-1.91-3.16-1.1-2.89.8Z" transform="translate(-112 -83.2)"/><path class="cls-38" d="M670.53,107.89a9.48,9.48,0,0,0,1.51,1.59.38.38,0,0,0,.53-.53,14.25,14.25,0,0,0-1.54-1.47.38.38,0,0,0-.53.53,19.6,19.6,0,0,0,1.59,1.69l.45-.59c-.73-.52-1.47-1-2.23-1.5-.38-.24-.7.28-.45.59a14.1,14.1,0,0,0,1.5,1.59l.45-.59a9.07,9.07,0,0,1-1.32-1.16c-.34-.36-.82.16-.53.53l.81,1,.54-.53-1-.92c-.3-.28-.83.09-.59.46l.78,1.18.59-.45-.7-.85c-.27-.33-.81.1-.59.46s.4.6.61.89l.59-.45a3.72,3.72,0,0,1-.58-.67c-.27-.4-.91,0-.65.38a5,5,0,0,0,.47.64l.53-.53-.6-.56c-.3-.28-.86.09-.59.45l.39.53c.28.38.92,0,.65-.38a5.24,5.24,0,0,1-.45-.76c-.22-.43-.86,0-.65.38a6.33,6.33,0,0,0,.45.76l.65-.38-.39-.53-.59.46.6.56a.37.37,0,0,0,.53-.53,2.9,2.9,0,0,1-.35-.49l-.65.38a4.54,4.54,0,0,0,.7.82c.3.27.86-.1.59-.46a10.77,10.77,0,0,1-.61-.89l-.59.45.7.85c.27.32.82-.1.58-.46l-.77-1.18-.59.46,1,.91a.38.38,0,0,0,.54-.53l-.82-1-.53.53a9.51,9.51,0,0,0,1.48,1.28c.34.25.76-.31.45-.59a14.1,14.1,0,0,1-1.5-1.59l-.46.59c.76.48,1.51,1,2.24,1.5.34.25.75-.3.45-.59a19.6,19.6,0,0,1-1.59-1.69l-.53.53a14.25,14.25,0,0,1,1.54,1.47l.53-.53a8.61,8.61,0,0,1-1.39-1.44c-.29-.38-.94,0-.65.38Z" transform="translate(-112 -83.2)"/><path class="cls-38" d="M670.41,108.11c.23-.16,1.87.83,2.17,1a.38.38,0,0,0,.38-.65l-2-1.41c-.41-.28-.76.37-.38.65A13.8,13.8,0,0,0,672.6,109a.37.37,0,0,0,.38-.64,21.28,21.28,0,0,1-2.22-1.65l-.46.59c.85.47,1.66,1,2.46,1.52.35.24.78-.31.45-.58l-1.93-1.6-.46.58,2.33,1.39a.37.37,0,0,0,.45-.59c-.64-.6-1.52-1-2-1.77l-.51.51a14.23,14.23,0,0,1,2.38,1.54l.46-.59a11.33,11.33,0,0,1-2.25-2l-.45.59L674,108c.36.23.78-.3.46-.59l-2.16-1.94-.45.59,2.72,1.7c.41.26.77-.38.38-.64a20,20,0,0,1-2.45-2l-.45.59a12.57,12.57,0,0,1,2.51,1.57c.37.3.87-.17.53-.53-.54-.57-1.38-.87-1.77-1.57l-.51.51a17.61,17.61,0,0,1,2,1.38l.46-.59a8.14,8.14,0,0,1-1.84-1.57l-.45.59L675.4,107l.38-.64a6.32,6.32,0,0,1-2-1.72l-.51.51,2.31,1.42c.42.26.75-.36.38-.64a6.88,6.88,0,0,1-1.62-1.61l-.51.52,1.7,1.14c.35.23.78-.31.45-.59a15,15,0,0,1-1.29-1.23l-.46.59,1.58,1c.4.26.78-.39.37-.65a5.48,5.48,0,0,1-1.27-1.13l-.46.59c.63.41,1.24.82,1.84,1.26.35.25.78-.31.46-.59a8.92,8.92,0,0,0-1-.73.38.38,0,0,0-.46.59l.29.35c.26.4.91,0,.64-.38a2.38,2.38,0,0,0-.4-.5l-.45.59a4.32,4.32,0,0,1,.86.61l.45-.59c-.6-.43-1.21-.85-1.84-1.25-.38-.25-.72.28-.46.58a6.61,6.61,0,0,0,1.44,1.25l.37-.65-1.57-1c-.37-.24-.73.28-.45.59a15,15,0,0,0,1.29,1.23l.46-.59-1.7-1.14a.37.37,0,0,0-.51.51,8,8,0,0,0,1.88,1.87L676,106l-2.31-1.43c-.3-.18-.75.21-.52.52a7.27,7.27,0,0,0,2.26,2,.37.37,0,0,0,.38-.64l-2.52-1.53a.38.38,0,0,0-.45.59,9,9,0,0,0,2,1.69c.35.22.78-.32.45-.59a17,17,0,0,0-2.1-1.49.38.38,0,0,0-.52.51c.45.79,1.28,1.08,1.89,1.72l.53-.53a13.24,13.24,0,0,0-2.67-1.69c-.36-.17-.78.28-.45.59a21.38,21.38,0,0,0,2.6,2.06l.38-.64-2.73-1.7c-.35-.23-.77.3-.45.58l2.16,1.94.45-.58-2.7-1.7c-.39-.25-.7.27-.46.59a11.9,11.9,0,0,0,2.4,2.13c.34.25.79-.33.45-.59a15.06,15.06,0,0,0-2.53-1.65.37.37,0,0,0-.51.51c.49.87,1.37,1.26,2.08,1.92l.46-.58-2.33-1.39c-.36-.22-.79.31-.45.59l1.93,1.6.46-.59c-.8-.55-1.61-1.06-2.46-1.53-.36-.2-.79.31-.45.59A22.72,22.72,0,0,0,672.6,109l.38-.64a14.72,14.72,0,0,1-2.06-1.32l-.38.65,2,1.41.38-.65c-.7-.34-2.15-1.5-2.93-1-.4.27,0,.92.38.65Z" transform="translate(-112 -83.2)"/><path class="cls-38" d="M675.21,105.25a4.16,4.16,0,0,0,1.89,1,.38.38,0,0,0,.37-.62,12.26,12.26,0,0,0-1.5-1.3l-.38.65,1.51.79c.36.19.8-.31.46-.59L676,104l-.45.59,1.49,1c.31.2.74-.2.52-.51l-.62-.86c-.23-.32-.85-.14-.69.29l.12.33a.38.38,0,0,0,.73-.2,7.9,7.9,0,0,1-.2-2.56h-.75l.07,2.06.73-.1a7.61,7.61,0,0,1-.33-2.42l-.74.1.13,1.47.73-.1a7.77,7.77,0,0,1,.07-3.29l-.73-.1-.34,1.65.7.19a6.54,6.54,0,0,1,1.22-3.3l-.69-.29-.86,1.15.59.45a4.89,4.89,0,0,1,2.35-2.1l-.38-.65-1.32.73.38.64a6.43,6.43,0,0,1,3.25-1l-.1-.74-1.41.15c-.48,0-.49.77,0,.75a28.19,28.19,0,0,1,3.79.14v-.75l-1.63-.12-.2.73a33.87,33.87,0,0,0,3.77.36v-.75a6.89,6.89,0,0,1-2.26-.2l-.2.72c1.21.22,2.43.39,3.66.53v-.75L684,97v.75l3.62.07a.38.38,0,0,0,0-.75L685.9,97v.75a18.87,18.87,0,0,0,2.38-.06c.47,0,.49-.76,0-.75L685,97a.38.38,0,0,0-.1.74,4.94,4.94,0,0,0,2.64.13c.42-.08.32-.74-.1-.73a13.44,13.44,0,0,0-2.53.29.38.38,0,0,0-.09.69,3.21,3.21,0,0,0,2.17.54c.33,0,.56-.54.19-.7l-1-.44a.38.38,0,0,0-.56.33,2.89,2.89,0,0,0,.6,1.74l.59-.46A15.53,15.53,0,0,0,685.42,98c-.25-.2-.79,0-.62.37a13.17,13.17,0,0,0,1,2l.65-.38c-.44-.7-1-2.07-2-2.09a.36.36,0,0,0-.32.19c-.35.72.2,1.34.63,1.93l.59-.46-1.9-2a.37.37,0,0,0-.58.45l1.74,2.64.64-.38a12.09,12.09,0,0,0-2.51-2.64c-.31-.24-.83.06-.59.46l1.77,2.88.59-.45-2-2.46c-.28-.34-.77.1-.59.46l1.66,3.18.64-.38-2.63-3.42c-.29-.36-.92,0-.65.38l1.94,3,.64-.37-2.14-3.1a.37.37,0,0,0-.65.37l2.21,3.93.64-.38-2.24-3.44-.65.38,2.18,3.29c.26.4.9,0,.65-.38-.74-1.21-1.51-2.39-2.34-3.55l-.59.46,1.87,2.11c.3.35.74-.09.59-.45a14.7,14.7,0,0,0-1.4-2.55l-.59.45,1.68,1.77c.21.22.68.07.64-.26a4,4,0,0,0-.73-2,.38.38,0,0,0-.7.19,1.62,1.62,0,0,0,1.23,1.86c.39.14.57-.37.36-.63A5,5,0,0,0,681,97.12c-.34-.13-.54.28-.42.55a18.53,18.53,0,0,0,1.67,3,.37.37,0,0,0,.68-.28,7,7,0,0,0-1.36-2.65c-.24-.3-.71,0-.62.37a9.39,9.39,0,0,0,1.46,3.22l.65-.38a23.2,23.2,0,0,0-2.85-3.33.38.38,0,0,0-.63.36,11.73,11.73,0,0,0,2.11,3.88c.25.31.7,0,.63-.37-.26-1.14-.63-2.5-1.94-2.6a.36.36,0,0,0-.32.19c-.53,1.06.13,1.93.55,3,.15.36.77.35.74-.1a9.76,9.76,0,0,0-1.47-4.66.37.37,0,0,0-.68.29,26.28,26.28,0,0,0,1.9,5.45.38.38,0,0,0,.7-.19c-.17-1.64.14-5.82-1.89-6.27a.38.38,0,0,0-.46.46,20.64,20.64,0,0,0,.92,3.8c.12.38.78.34.73-.1a3.49,3.49,0,0,0-1-2.34c-.29-.32-.79.09-.59.46l1.79,3.18c.22.39.76.11.69-.29-.25-1.34-.41-5.77-2.61-5.44a.38.38,0,0,0-.26.46l1.43,5.86a.37.37,0,0,0,.73-.1,5,5,0,0,0-2-4.5.38.38,0,0,0-.63.37,25.06,25.06,0,0,0,1,4.29.38.38,0,0,0,.73-.2c-.36-1.74-.29-4.56-1.56-5.87a.38.38,0,0,0-.64.26,10.92,10.92,0,0,0,.2,2.22l.72-.2a3.66,3.66,0,0,0-.94-1.71c-.28-.3-.69,0-.63.37a6.35,6.35,0,0,0,1.3,3,.38.38,0,0,0,.7-.19,3.58,3.58,0,0,0-1.09-3.23c-.28-.29-.68,0-.63.37.32,2,.72,3.89,1.22,5.81a.37.37,0,0,0,.73-.1,7.33,7.33,0,0,0-.16-2.43.38.38,0,0,0-.69-.09c-.82,1.42-.45,2.65.17,4.1.17.4.78.11.68-.29-.48-1.94-1-3.87-1.6-5.78a.38.38,0,0,0-.74.1,11,11,0,0,0,.22,2.86.37.37,0,0,0,.73-.1A9.81,9.81,0,0,0,678,99a.38.38,0,0,0-.74.1l-.14,2h.75c-.08-1.15-.1-2.27-.07-3.42H677c0,2.28-.07,4.55-.07,6.83h.75a14.7,14.7,0,0,0-.22-2.57l-.72.2.94,2.93c.1.33.64.39.72,0a2.52,2.52,0,0,0,0-1.56l-.72.2.14.51c.11.4.76.34.74-.09l-.06.32c.28.3.68,0,.62-.36l-.25-1.52-.68.29.37.6c.22.35.83.13.69-.29l-.29-.86a.39.39,0,0,0-.46-.27l-.73.17a.38.38,0,0,0-.22.55l.3.53c.21.35.86.11.69-.29l-.28-1.31-.73.1.25.93a.37.37,0,0,0,.72-.2l-.25-.93a.38.38,0,0,0-.74.1,2.23,2.23,0,0,0,.31,1.51l.68-.29,0,.46.68-.29-.38-.6a.37.37,0,0,0-.68.29l.25,1.52L679,104l-.36-.39a.39.39,0,0,0-.46-.06l-.23.11a.41.41,0,0,0-.19.33l0,.22.73-.1-.14-.52a.37.37,0,0,0-.72.2v1.16h.72l-.94-2.93a.37.37,0,0,0-.72.2,9.41,9.41,0,0,1,.19,2.37.38.38,0,0,0,.75,0c0-2.28,0-4.55.07-6.83a.38.38,0,0,0-.75,0c0,1.15,0,2.27.07,3.42a.38.38,0,0,0,.75,0l.14-2-.73.1a6.31,6.31,0,0,1,.4,2.48l.74-.1a7.25,7.25,0,0,1-.19-2.66l-.74.1c.59,1.91,1.12,3.84,1.61,5.78l.69-.29a3.55,3.55,0,0,1-.17-3.34l-.68-.09a5,5,0,0,1,.13,2.23l.74-.1c-.5-1.92-.9-3.85-1.21-5.81l-.63.36a2.73,2.73,0,0,1,.87,2.7l.7-.19a6.3,6.3,0,0,1-1.23-2.87l-.62.36.75,1.38c.12.47.81.27.72-.2a7.24,7.24,0,0,1-.17-2l-.64.27c1,1,1.08,4.16,1.36,5.54l.73-.2a24.39,24.39,0,0,1-1-4.29l-.62.36a4.43,4.43,0,0,1,1.81,4l.74-.1c-.18-.76-.56-4.42-1.19-4.88.87.63,1,3.42,1.18,4.4l.69-.29-1.79-3.18-.59.45.79,1.81.74-.1a22.4,22.4,0,0,1-.92-3.8l-.46.46c1.21.27,1.25,4.71,1.34,5.55l.7-.19a25.31,25.31,0,0,1-1.83-5.27l-.69.29a8.73,8.73,0,0,1,1.37,4.28l.74-.1-.69-1.76a1.89,1.89,0,0,1,1,1.56l.62-.36a9.64,9.64,0,0,1-1.91-3.55l-.63.37a22.45,22.45,0,0,1,2.73,3.18c.27.39.92,0,.65-.38a9.22,9.22,0,0,1-1.39-3l-.63.36a4.89,4.89,0,0,1,1.17,2.31l.69-.28a19.05,19.05,0,0,1-1.67-3l-.43.55a3.72,3.72,0,0,1,2.18,1.6l.37-.63-.68-1.13-.7.18.63,1.62.64-.27-1.68-1.77c-.29-.3-.84.1-.59.46a14.35,14.35,0,0,1,1.4,2.55L683,100l-1.87-2.11c-.28-.32-.84.1-.59.45.83,1.16,1.61,2.33,2.34,3.55l.65-.38-2.18-3.29c-.27-.4-.92,0-.65.38l2.25,3.44a.37.37,0,0,0,.64-.38l-2.2-3.92-.65.37,2.15,3.1c.27.4.91,0,.64-.37l-1.93-3-.65.38,2.64,3.42a.37.37,0,0,0,.64-.38L682.56,98l-.59.45,2,2.46c.27.33.8-.1.59-.46l-1.77-2.88-.59.45a11.82,11.82,0,0,1,2.4,2.49c.27.39.91,0,.64-.38l-1.74-2.64-.59.46,1.9,2c.28.31.84-.1.59-.45-1.3-1.79-.19-.22.4.73a.38.38,0,0,0,.65-.38,9,9,0,0,1-.91-1.77l-.63.36a14.1,14.1,0,0,1,1.39,1.17c.29.26.84-.09.58-.46l-.49-1.36-.57.32,1,.44.19-.7-1.79-.44-.09.68a8,8,0,0,1,2.33-.26l-.1-.74L685.11,97l-.1.74,3.27-.08v-.75a18.87,18.87,0,0,1-2.38.06.38.38,0,0,0,0,.75l1.72.08v-.75L684,97c-.49,0-.48.71,0,.75l2.44.16c.48,0,.47-.69,0-.75-1.17-.13-2.31-.3-3.46-.5-.47-.08-.68.63-.2.72a10.11,10.11,0,0,0,2.46.23.38.38,0,0,0,0-.75,30.58,30.58,0,0,1-3.57-.34c-.47-.07-.68.65-.2.73a6.24,6.24,0,0,0,1.83.14.38.38,0,0,0,0-.75,28.19,28.19,0,0,0-3.79-.14v.75a14.68,14.68,0,0,0,1.61-.18c.41-.06.32-.76-.1-.73a7,7,0,0,0-3.63,1.14.37.37,0,0,0,.38.64l1.32-.72c.43-.24,0-.85-.38-.65a5.54,5.54,0,0,0-2.62,2.37c-.23.39.27.71.59.46a3,3,0,0,0,1.05-1.48c.16-.42-.45-.62-.68-.29a7.33,7.33,0,0,0-1.32,3.68.38.38,0,0,0,.7.19,3.58,3.58,0,0,0,.44-2c0-.4-.66-.54-.74-.1a10.64,10.64,0,0,0-.07,3.69c.06.43.74.32.74-.1a6.23,6.23,0,0,0-.16-1.67c-.07-.42-.75-.32-.73.1a11.17,11.17,0,0,0,.36,2.62.38.38,0,0,0,.74-.1l-.07-2.06a.38.38,0,0,0-.75,0,12.8,12.8,0,0,0,.22,2.76l.73-.2-.13-.33-.68.29.62.86.51-.51-1.5-1c-.35-.23-.78.31-.45.59l1.52,1.24.45-.59-1.51-.79a.38.38,0,0,0-.38.65,7.24,7.24,0,0,1,1.35,1.18l.36-.63-1.56-.85c-.36-.32-.89.21-.53.53Z" transform="translate(-112 -83.2)"/><path class="cls-38" d="M676.84,101.19v1.31h.75l0-1.31a.38.38,0,0,0-.74-.1,3.71,3.71,0,0,0-.09,1.59c.07.48.79.27.72-.2a3,3,0,0,1,.1-1.19l-.74-.1,0,1.31a.38.38,0,0,0,.75,0v-1.31a.38.38,0,0,0-.75,0Z" transform="translate(-112 -83.2)"/><path class="cls-41" d="M667.94,103.74a33.77,33.77,0,0,1-.48-7.7A11.59,11.59,0,0,1,670.38,89a13,13,0,0,1,6.86-3.45,40.58,40.58,0,0,1,7.87-.51c2.54,0,5.41.14,7.08,1.94,1.37,1.48,1.49,3.63,1.54,5.59a1.61,1.61,0,0,1-1.6,2c-4.14.82-8.46-.36-12.64.22a7.5,7.5,0,0,0-2.72.84c-2.73,1.58-3.1,5.21-2.54,8.19" transform="translate(-112 -83.2)"/><path class="cls-41" d="M669.39,103.34C668.8,99,668.1,93.61,671.44,90c2.42-2.6,6.38-3.25,9.72-3.45,2-.12,5.5-.67,7.42.17,3,1.32,5.13,5.26.87,6.56-1.21.37-3.35-.08-4.53-.12-3.36-.13-7.63-.47-10.24,2.14-2.34,2.35-2.31,5.82-1.9,8.86.26,1.9,3.15,1.09,2.89-.8-1.2-9,7-6.93,12.88-7,1.75,0,5,.08,6.19-1.66,2.88-4.09-1.46-9.85-5.37-10.82-5.48-1.36-14-.67-18.61,2.8-5.55,4.21-5.1,11.27-4.26,17.49.25,1.9,3.15,1.09,2.89-.8Z" transform="translate(-112 -83.2)"/><path class="cls-38" d="M670.39,110.07a6.3,6.3,0,0,1-1.46-4.55,2.06,2.06,0,0,1,1.9-1.86,2.41,2.41,0,0,1,1.22.15c.58.22,2,1.1.9,2-.36.32.17.85.53.53a1.73,1.73,0,0,0-.08-2.57,3.29,3.29,0,0,0-3.46-.67c-3,1.14-1.75,5.71-.08,7.5.33.35.86-.18.53-.53Z" transform="translate(-112 -83.2)"/><path class="cls-38" d="M673.51,105.56a2.59,2.59,0,0,0-3.23-1.65,2.23,2.23,0,0,0-1.22,3.19c.22.43.87.05.65-.38a1.47,1.47,0,0,1,1-2.15,1.84,1.84,0,0,1,2.1,1.19c.18.43.91.24.72-.2Z" transform="translate(-112 -83.2)"/><path class="cls-40" d="M666.32,211.39l8.09,6.68,1.81-2.36a79.55,79.55,0,0,0-11.73-6.62c-1.73-.78-3.23,1.63-1.52,2.59q5.31,3,10.49,6.19l1.52-2.59a126.15,126.15,0,0,1-11-6.3c-1.66-1.07-3,1.46-1.51,2.59,2.64,2,5.35,3.85,8.18,5.58l1.51-2.59a44.56,44.56,0,0,1-10.95-6.69l-1.81,2.35,4.32,2.64c1.69,1,3-1.46,1.51-2.59q-3.94-3-7.85-6l-1.46,2.51a44,44,0,0,0,9.51.84c1.93,0,1.94-3,0-3a39.85,39.85,0,0,1-8.71-.74c-1.3-.25-2.75,1.5-1.46,2.51q4.2,3.27,8.46,6.46l1.51-2.59-4.32-2.64c-1.42-.86-3.15,1.25-1.82,2.36a47.1,47.1,0,0,0,11.56,7.16c1.73.74,3.21-1.56,1.51-2.59-2.83-1.73-5.54-3.58-8.18-5.58l-1.51,2.59a126,126,0,0,0,11,6.3,1.5,1.5,0,0,0,1.52-2.59q-5.19-3.19-10.49-6.19L663,211.68a79.65,79.65,0,0,1,11.74,6.62c1.39.95,3.14-1.26,1.82-2.35l-8.09-6.68c-1.48-1.23-3.61.89-2.12,2.12Z" transform="translate(-112 -83.2)"/><path class="cls-40" d="M657.52,207.65l6.77.37c2,.11,4.89-.21,6.76.46l-1-1,.08.28a1.5,1.5,0,0,0,2.89-.8c-.57-2.07-3.37-1.6-5-1.69l-10.42-.57c-1.93-.1-1.93,2.9,0,3Z" transform="translate(-112 -83.2)"/><path class="cls-40" d="M662.8,207.9q7-.1,14-.06l-.4-3-.83.22a1.5,1.5,0,0,0,.8,2.89l.83-.22a1.5,1.5,0,0,0-.4-2.94q-7,0-14,.06a1.5,1.5,0,0,0,0,3Z" transform="translate(-112 -83.2)"/><path class="cls-40" d="M664.34,207.48q8.89.15,17.79.62c1.93.1,1.92-2.9,0-3q-8.89-.47-17.79-.62c-1.93,0-1.93,3,0,3Z" transform="translate(-112 -83.2)"/><path class="cls-40" d="M676.19,208.16q6.33-.37,12.67-.33l-.75-2.8h-.06a1.5,1.5,0,0,0,0,3,2.57,2.57,0,0,0,1.57-.42,1.51,1.51,0,0,0-.76-2.79q-6.35,0-12.67.33c-1.92.11-1.94,3.11,0,3Z" transform="translate(-112 -83.2)"/><path class="cls-40" d="M681,207.87a56,56,0,0,1,11.43,0c1.92.2,1.9-2.8,0-3a56,56,0,0,0-11.43,0c-1.91.2-1.93,3.2,0,3Z" transform="translate(-112 -83.2)"/><path class="cls-40" d="M686.22,207.47a13.56,13.56,0,0,1,6.47-.71c1.88.26,2.7-2.63.79-2.9a16.84,16.84,0,0,0-8.06.72c-1.81.63-1,3.53.8,2.89Z" transform="translate(-112 -83.2)"/><path class="cls-40" d="M690.22,205.93a11.23,11.23,0,0,1,6.16,9.56l2.79-.76-3.29-6.2c-.92-1.74-3.37-.21-2.59,1.51a29.7,29.7,0,0,1,2.24,7.46l2.74-1.16a84.68,84.68,0,0,1-5.62-9.84L690.06,208l3,6.11,2.59-1.51a48.83,48.83,0,0,0-5.54-6.39c-1-1-3.08,0-2.51,1.46a85.34,85.34,0,0,0,4.41,9.63l2.59-1.51-6.41-8.4c-1.14-1.48-3.63-.18-2.59,1.52a90.78,90.78,0,0,1,4.89,9.19l2.35-1.81-7.57-8.89c-1.13-1.32-3.18.37-2.36,1.82l5.06,8.87,2.35-1.82a69.73,69.73,0,0,0-10-8.68c-1.46-1.05-2.87,1.15-1.82,2.36l6.45,7.46,2.12-2.12L677.77,207a1.5,1.5,0,0,0-2.13,2.12l7,7.33,1.82-2.36q-5.33-3.65-10.46-7.57c-1.2-.91-2.87.86-2.05,2a30.24,30.24,0,0,0,5.48,6.15l1.82-2.36-10.33-5.61a1.5,1.5,0,0,0-1.51,2.59l7.29,5.45,1.51-2.59-11.08-5.52c-1.44-.72-3.16,1.15-1.82,2.36a49.23,49.23,0,0,0,8.59,6.22l1.51-2.59c-3.92-1.75-7.73-3.66-11.47-5.75a1.5,1.5,0,0,0-1.52,2.59,111.39,111.39,0,0,1,11.83,9.62l1.82-2.35c-4.12-2.34-8.1-4.87-12-7.61l-1.51,2.59a77,77,0,0,1,11.11,9.51l1.82-2.36a53.19,53.19,0,0,1-9.07-7.17l-1.82,2.36a103.85,103.85,0,0,1,9.72,8.18l2.12-2.12-8-6.25c-1.51-1.17-3.65.92-2.13,2.12l11.17,8.79,1.81-2.36a33.13,33.13,0,0,1-6.12-5.58L669,219a69.3,69.3,0,0,1,10.39,10.37l1.82-2.35a47.32,47.32,0,0,1-7.84-6.69l-1.82,2.35a76.5,76.5,0,0,1,11.5,10.21l2.13-2.12c-1.77-1.53-9.85-7.58-9.24-10.17l-2.5.66a87.66,87.66,0,0,1,10.48,11l2.12-2.12a60,60,0,0,1-11.47-17l-2.05,2.05c6.41,3.78,9.9,10.53,14.75,15.94l2.12-2.12c-4.72-4.57-9.35-9.21-11.55-15.55L676,215.24c2.75.55,5.62,6,7.22,8.07l6.43,8.27c1.05,1.34,3.27-.4,2.36-1.82a181.84,181.84,0,0,1-10.45-18.56l-1.3,2.25c1.39-.11,5.31,8,6.14,9.25l5.89,9.33,2.35-1.82a63.92,63.92,0,0,1-4.88-6.34c-.45-.68-3.34-5.48-1-1.58a125.41,125.41,0,0,1,6.67,12.87l2.36-1.82c-4-3.88-4.6-12-5.91-17.17l-2.74,1.16a29.7,29.7,0,0,1,5.22,14l3-.39a65.33,65.33,0,0,1-2.83-12.36l-2.79.76a24.68,24.68,0,0,1,4.47,10.85l2.89-.8A76.63,76.63,0,0,1,695,215l-2.74,1.16q3.64,7.65,6.74,15.54c.7,1.76,3.39,1.12,2.9-.8l-3.77-14.82-2.89.8a53.73,53.73,0,0,1,2.49,12.69l2.95-.39a52.75,52.75,0,0,1-2-15.55l-3,.39c1.3,5.67,2.36,11.36,3.2,17.11L701.6,230a38.57,38.57,0,0,1-3.52-12.49l-3,.4,2.17,13,2.75-1.15a74.76,74.76,0,0,1-3.59-9.55l-2.74,1.15c2.43,4.52,3.11,9.25,3.68,14.28l2.8-.75a88.89,88.89,0,0,1-6.38-12.81l-2.2,1.69c2,1.29,2.6,6.24,3.21,8.4.81,2.81,1.56,5.64,2.27,8.48l2.74-1.15A40.29,40.29,0,0,1,695,231l-2.59,1.52a30.49,30.49,0,0,1,3.6,10.84l2.74-1.15q-3.72-6.91-7.11-14L689.26,230c.78.66,3,4.5,1.46,1.46-.66-1.28-1.53-2.5-2.21-3.77l-2.59,1.51c2,3.56,3.89,7.17,5.64,10.86l2.36-1.81a32.42,32.42,0,0,1-4.34-5.36c-1-1.62-3.63-.12-2.59,1.51a27.62,27.62,0,0,0,3.63,4.57l1.82-2.36a61.54,61.54,0,0,1-7.67-6.94c-1.32-1.41-3.42.71-2.12,2.12l5.78,6.28,1.82-2.35-2.5-1.6a1.51,1.51,0,0,0-2,2,7.43,7.43,0,0,0,1.47,1.92l2.12-2.12-3-2.52c-1.46-1.23-3.56.81-2.12,2.12a23.45,23.45,0,0,1,4.64,5.76l2.36-1.82a16,16,0,0,1-2.64-2.94c-1.13-1.51-3.64-.17-2.59,1.51a75.76,75.76,0,0,1,6.19,12.22l2.5-1.46a9.2,9.2,0,0,1-2.42-5L689.48,245a40.42,40.42,0,0,1,4.75,16.41h3l-1.37-16.2-2.94.39q2.34,10,3.76,20.17c.23,1.67,3.05,1.28,3-.4l-1.42-22.57-3,.39A139.8,139.8,0,0,1,698,263.24h3l-2.48-21.42a1.5,1.5,0,0,0-3,0,20.3,20.3,0,0,0,.23,4.41l2.74-1.15-5.35-7.67c-.91-1.31-3.32-.56-2.74,1.16l4.3,12.77c.61,1.82,3.5,1,2.89-.79l-3.77-11.45-2.89.8A61.91,61.91,0,0,1,694.33,257l2.94-.4-.8-4.95c-.27-1.67-3-1.27-3,.4l.52,12.56,2.94-.4a38.32,38.32,0,0,1-1.54-9.33h-3q.57,8.7.36,17.4l3-.4a107.42,107.42,0,0,1-1.15-12.4c-.08-1.93-3-1.94-3,0q.07,14,.59,27.92h3q-.5-8.43-.77-16.86a1.5,1.5,0,0,0-3,0q0,12.19.73,24.35h3l-.56-6h-3c.46,4.19-.06,11.27,3.65,14.28,1.83,1.48,5.45,2.12,6.75-.35,1.16-2.19.16-6.92-.1-9.25-.42-3.8-.92-7.59-1.24-11.4-.66-7.74-.9-15.49-.83-23.25,0-2-2.8-1.88-3,0-1.35,12.69.82,26.2,1.59,38.91l1.1-1.45c-.77.23-1.83-16.78-1.86-18.49-.13-5.93.07-11.85.51-17.76h-3c-.25,7.78-.5,15.57-.46,23.37,0,5.93-.66,12.81,2.31,18.18a1.51,1.51,0,0,0,2.59,0c3.21-7.56-1-14.47-.8-22.2h-3q.83,11.41,1.31,22.86a1.5,1.5,0,0,0,3,0l1-31c.06-1.93-2.94-1.93-3,0l-1,31h3q-.48-11.44-1.31-22.86a1.5,1.5,0,0,0-3,0c-.16,6.82,4,14.07,1.21,20.68h2.59c-3.11-5.62-1.93-14.31-1.9-20.56,0-6.49.25-13,.46-19.47.06-1.95-2.86-1.91-3,0a180.85,180.85,0,0,0,.06,28.6c.25,3-.4,12.13,5.09,10.54a1.52,1.52,0,0,0,1.1-1.44c-.77-12.71-2.94-26.23-1.59-38.91h-3A243,243,0,0,0,698,286c.37,3.62,2.21,9.36,1.3,12.86l0,1.77q-4.21-1-3.91-4.87c-.32-2.29-.51-4.61-.76-6.9-.21-1.89-3.18-1.94-3,0l.56,6c.18,1.89,3.12,1.95,3,0q-.76-12.17-.73-24.35h-3q.29,8.43.77,16.86c.11,1.91,3.07,1.94,3,0q-.51-14-.59-27.92h-3a116.93,116.93,0,0,0,1.25,13.2c.26,1.72,2.91,1.23,2.95-.4q.21-8.71-.36-17.4c-.13-1.91-3.08-1.95-3,0a41.55,41.55,0,0,0,1.65,10.13c.46,1.59,3,1.34,2.95-.4l-.52-12.56-2.95.4.81,4.95c.27,1.67,3,1.28,3-.4a64.4,64.4,0,0,0-3.54-17.94c-.63-1.8-3.5-1-2.89.8l3.77,11.44,2.89-.79-4.3-12.78-2.74,1.15,5.35,7.67a1.51,1.51,0,0,0,2.74-1.15,12.22,12.22,0,0,1-.12-3.62h-3L698,263.24c.22,1.87,3.13,2,3,0a143.57,143.57,0,0,0-2.82-20.84,1.5,1.5,0,0,0-2.94.4l1.42,22.57,2.94-.4q-1.41-10.17-3.76-20.16c-.38-1.62-3.09-1.31-2.95.4l1.37,16.2c.16,1.91,3.14,1.94,3,0a44.2,44.2,0,0,0-5.16-17.92c-.82-1.54-3.12-.46-2.74,1.16a14.3,14.3,0,0,0,3.19,6.3,1.51,1.51,0,0,0,2.51-1.46,79.76,79.76,0,0,0-6.49-12.93L686,238.07a26.27,26.27,0,0,0,3.11,3.56,1.5,1.5,0,0,0,2.35-1.82,25.54,25.54,0,0,0-5.11-6.37l-2.12,2.12,3,2.52c1.45,1.23,3.49-.72,2.12-2.12l-1-1.31-2,2,2.49,1.6c1.48.94,2.94-1.14,1.82-2.36l-5.78-6.28-2.12,2.12a66.11,66.11,0,0,0,8.28,7.41c1.38,1.05,3-1.18,1.81-2.36a24.13,24.13,0,0,1-3.16-4L687,234.39a35.35,35.35,0,0,0,4.81,6c1.26,1.26,3.06-.33,2.35-1.82-1.75-3.69-3.62-7.31-5.64-10.86-1-1.68-3.5-.19-2.59,1.51s4.13,9.28,7.52,7.11c3.11-2-.27-6.9-2.06-8.43a1.5,1.5,0,0,0-2.35,1.81q3.39,7.09,7.11,14c.87,1.63,3,.4,2.74-1.15A32.89,32.89,0,0,0,695,231c-1-1.73-3.32-.2-2.59,1.52a40,40,0,0,0,4.86,8.5,1.51,1.51,0,0,0,2.75-1.16c-1.08-4.26-2.24-8.49-3.52-12.69-.75-2.44-1.16-4.55-3.35-6-1-.67-2.69.47-2.2,1.69a92.38,92.38,0,0,0,6.68,13.53c.71,1.18,3,.8,2.79-.76-.63-5.53-1.43-10.83-4.09-15.79a1.51,1.51,0,0,0-2.75,1.15,79.46,79.46,0,0,0,3.9,10.27c.75,1.66,3,.39,2.74-1.16l-2.17-13c-.28-1.65-3.13-1.28-2.95.4a43.45,43.45,0,0,0,3.92,14c.79,1.68,3,.38,2.75-1.15q-1.26-8.62-3.21-17.1c-.38-1.68-2.92-1.27-2.94.4A55.07,55.07,0,0,0,697.75,230c.45,1.58,3.07,1.34,2.94-.4a57,57,0,0,0-2.6-13.49,1.5,1.5,0,0,0-2.89.8L699,231.71l2.9-.8q-3.25-8.25-7.05-16.26c-.77-1.63-3-.4-2.74,1.16a77.05,77.05,0,0,0,4.12,14.42,1.5,1.5,0,0,0,2.89-.8,26.51,26.51,0,0,0-4.77-11.56c-.76-1.05-3-.89-2.8.75a68.88,68.88,0,0,0,2.94,13.15c.5,1.51,3.13,1.38,2.94-.4a32.8,32.8,0,0,0-5.63-15.56A1.51,1.51,0,0,0,689,217c1.49,5.93,2.06,14,6.69,18.5a1.51,1.51,0,0,0,2.35-1.82c-2.13-4.74-4.39-10.3-7.62-14.42-1.23-1.57-2.71-3.33-4.91-2.22-5.08,2.56,5,13,7,15.32,1.12,1.29,3.26-.38,2.36-1.81l-8.84-14c-1.34-2.12-2.75-6.31-5.78-6.07a1.53,1.53,0,0,0-1.29,2.26,180.78,180.78,0,0,0,10.45,18.56l2.35-1.81L683,218.18c-1.74-2.23-3.24-5.24-6.2-5.84-1-.2-2.25.69-1.84,1.85,2.39,6.88,7.18,11.89,12.32,16.87a1.5,1.5,0,0,0,2.12-2.12c-5-5.64-8.67-12.47-15.36-16.41-1.39-.82-2.63.76-2,2.05A62.26,62.26,0,0,0,684,232.23c1.36,1.43,3.3-.65,2.12-2.12a86.94,86.94,0,0,0-10.48-11,1.52,1.52,0,0,0-2.51.66c-1.21,5.15,6.74,10.26,10,13.09a1.5,1.5,0,0,0,2.13-2.12,81.45,81.45,0,0,0-12.11-10.68c-1.43-1-3,1.17-1.82,2.36a50.68,50.68,0,0,0,8.45,7.16c1.51,1,2.81-1.13,1.81-2.36a69.3,69.3,0,0,0-10.39-10.37A1.5,1.5,0,0,0,669,219a36.18,36.18,0,0,0,6.73,6.05c1.38,1,3.16-1.3,1.82-2.36l-11.16-8.78L664.29,216l8,6.25c1.47,1.15,3.56-.76,2.12-2.12a108,108,0,0,0-10.33-8.65c-1.38-1-3,1.19-1.81,2.35A56.54,56.54,0,0,0,672,221.5c1.47.93,3-1.15,1.82-2.35a81.46,81.46,0,0,0-11.72-10c-1.58-1.11-3.07,1.49-1.51,2.59a140.84,140.84,0,0,0,12,7.61c1.45.82,3.09-1.17,1.81-2.36a118,118,0,0,0-12.43-10.09l-1.52,2.59c3.75,2.09,7.56,4,11.48,5.75,1.72.77,3.22-1.61,1.51-2.59a45.59,45.59,0,0,1-8-5.76l-1.81,2.36,11.08,5.52a1.5,1.5,0,0,0,1.51-2.59l-7.29-5.45-1.51,2.59L677.71,215c1.44.78,3.17-1.21,1.82-2.36a27.23,27.23,0,0,1-5-5.54l-2.06,2.05q5.14,3.93,10.47,7.57c1.44,1,3-1.16,1.81-2.35l-7-7.33-2.13,2.12,9.37,8.31a1.5,1.5,0,0,0,2.12-2.12l-6.45-7.46-1.82,2.35a64.84,64.84,0,0,1,9.36,8.22,1.51,1.51,0,0,0,2.36-1.82l-5.06-8.88-2.36,1.82,7.58,8.89c1.18,1.38,3-.38,2.36-1.82a90.94,90.94,0,0,0-4.89-9.2l-2.59,1.52,6.41,8.39a1.5,1.5,0,0,0,2.59-1.51,80.84,80.84,0,0,1-4.11-8.92L688,208.35a43.62,43.62,0,0,1,5.08,5.78,1.5,1.5,0,0,0,2.59-1.51l-3-6.12c-.86-1.73-3.43-.21-2.59,1.52a84.68,84.68,0,0,0,5.62,9.84,1.51,1.51,0,0,0,2.75-1.16,33.41,33.41,0,0,0-2.55-8.17L693.29,210l3.29,6.21a1.51,1.51,0,0,0,2.8-.76,14.32,14.32,0,0,0-7.64-12.15c-1.7-.93-3.21,1.66-1.52,2.59Z" transform="translate(-112 -83.2)"/><path class="cls-42" d="M651.38,202.44c3.52,8.44,9.51,15,16.12,21.23,3.65,3.42,7.42,6.7,11,10.2,4.12,4,9.71,9,10.6,14.94.95,6.26-.35,13.28-.32,19.63s.33,13,.71,19.44q.3,4.86.65,9.71c.12,1.67-.26,5,.81,6.55,1.81,2.63,8.08,1.74,10.67,1.91,1.93.13,1.92-2.87,0-3-3.51-.23-7.07.32-8.34-3.51-.81-2.45-.44-6.13-.61-8.74-.37-5.83-.68-11.66-.82-17.5s-.09-11.67.2-17.49c.25-4.73.56-8.91-2-13.07-9.67-15.64-28.46-23.64-35.75-41.1-.73-1.75-3.64-1-2.89.8Z" transform="translate(-112 -83.2)"/><path class="cls-43" d="M668.81,110.41c-8.39,4.23-14.21,12.14-17.4,20.62s-4,17.58-4.47,26.57q-.84,16.6-.16,33.22c.15,3.47.71,7.53,3.9,9.24a11.23,11.23,0,0,0,4.07,1,204.28,204.28,0,0,0,41,.47" transform="translate(-112 -83.2)"/><path class="cls-43" d="M668.05,109.11c-23.38,12.58-23,43-23.07,66.08,0,6.11-.37,12.63.58,18.69.7,4.48,2.86,7.48,7.39,8.44,6.18,1.32,13,1.29,19.35,1.45a213.39,213.39,0,0,0,23.45-.74c1.91-.16,1.92-3.16,0-3a209.55,209.55,0,0,1-35.16.1c-3.57-.3-7.31-.07-9.89-2.71s-2.36-5.09-2.49-8.56c-.23-5.85-.28-11.72-.2-17.58.27-21,.34-48.17,21.56-59.58,1.7-.91.18-3.5-1.52-2.59Z" transform="translate(-112 -83.2)"/><path class="cls-43" d="M688.74,167.87a234,234,0,0,1,9.5,32.7l-2.47.55" transform="translate(-112 -83.2)"/><path class="cls-43" d="M687.3,168.27a247.51,247.51,0,0,1,9.49,32.7l1.05-1.85-2.47.56c-1.88.42-1.09,3.31.8,2.89l2.47-.55a1.54,1.54,0,0,0,1.05-1.85,249.08,249.08,0,0,0-9.5-32.7c-.66-1.8-3.56-1-2.89.8Z" transform="translate(-112 -83.2)"/><path class="cls-43" d="M678.33,119.62c-1.15,3.76-.24,7.79.67,11.61l4.71,19.82" transform="translate(-112 -83.2)"/><path class="cls-43" d="M676.88,119.22c-1.11,4.89,0,9.42,1.1,14.21,1.42,6,2.86,12,4.28,18,.45,1.88,3.34,1.08,2.9-.8l-3.43-14.41c-1.26-5.29-3.2-10.77-2-16.23.43-1.88-2.46-2.68-2.89-.79Z" transform="translate(-112 -83.2)"/><path class="cls-38" d="M665.06,161.64a26,26,0,0,0,1.67,8.44c.72,1.9,1.94,3.95,4,4.38s3.93-.8,5.58-2a278.07,278.07,0,0,1,40.73-23.33c1.92-.89,4-2,4.71-3.88,1-2.82-1.61-5.53-4-7.48" transform="translate(-112 -83.2)"/><path class="cls-38" d="M664.68,161.64c.26,4.18,1.15,13,6.81,13.21,3.24.13,6.25-2.87,8.75-4.54q6.38-4.26,13-8.16c8.2-4.84,16.88-8.63,25.19-13.21,5.81-3.2,4-7.6-.34-11.38-.37-.32-.9.21-.53.53,2.63,2.3,3.33,2.74,2.4,6.45-.87,3.48-.5,3-3.07,4.32s-4.91,2.33-7.35,3.55q-7.68,3.85-15.11,8.18-7,4.08-13.8,8.57c-2.75,1.83-8.11,6.8-11.7,3.85-2.83-2.31-3.27-8.08-3.48-11.37,0-.48-.77-.48-.75,0Z" transform="translate(-112 -83.2)"/><path class="cls-38" d="M677.57,153.49c1.06,1.68,3.77,1.07,5.61.17,2.53-1.24,5-2.63,7.41-4,5.29-3.09,10.87-6.76,12.68-12.39a6.91,6.91,0,0,1,1.37-3c.8-.79,2.46-.91,3,.08.33.64,0,1.39.07,2.1.07,1.58,1.82,2.71,3.49,2.77a10.68,10.68,0,0,0,4.74-1.34" transform="translate(-112 -83.2)"/><path class="cls-38" d="M677.3,153.75c2.75,2.52,6.34.15,9.07-1.32,4.8-2.58,10-5.33,13.74-9.37a16,16,0,0,0,3-4.38c.69-1.54.84-5,4.2-2.29.26.2.09,1.07.39,1.28,3.11,2.15,4.73,2.09,8.4.47.44-.19.06-.84-.38-.65-.18.08-7.58-2.26-7.6-2.28-.2-.17.08-1-.18-1.11s-.67-.66-1.09-.82c-1.41-.52-2.57.71-3.2,1.73-1.4,2.25-1.73,4.83-3.55,7a28.33,28.33,0,0,1-5.73,4.86c-3,2-13.14,9.49-16.53,6.38-.35-.32-.89.21-.53.53Z" transform="translate(-112 -83.2)"/><path class="cls-38" d="M680.57,153.87a9.64,9.64,0,0,0-3.85,2.92.37.37,0,0,0,.53.53l1.9-1.28c.37-.2.11-.83-.29-.69a16.54,16.54,0,0,0-2.45.77c-.25,1.16,2.81-.18,3.06-.27A41.81,41.81,0,0,0,685,153.3c2-1.14,3.85-2.63,5.88-3.77,1.5-.84,3.51-1.4,4.84-2.21-.07.05-4.41,1.83-4.13,1.73-.45.17-.25.89.2.72a55.23,55.23,0,0,0,8.47-3.86.37.37,0,0,0-.29-.68,11.31,11.31,0,0,0-4.07,2.14c-.38.29,0,.94.38.65,1.85-1.36,3.74-2.64,5.69-3.86.42-.26,0-.83-.38-.65-2.06.88-3.25,1.36-4.62,3.1a.38.38,0,0,0,.53.53c.47-.38,4.15-3.2,4.14-3.21-.51-.3-2,1.36-1,1.45a11.84,11.84,0,0,0,2.38-1.93c.19-.88-3,2.53-2.83,2.29a.37.37,0,0,0,.53.53,29.34,29.34,0,0,0,3-2.76c1.49-1.83-1.46,1.23-1.47,1.24-.33.35.19.88.53.53,2.32-2.42,3.13-4.33.56-.5-.25.37.29.75.59.46.78-.75,2-1.7,2.09-2.55s-2,2.12-1.89,2c-.25.34.3.76.59.45.84-.89,1.79-1.72,2.59-2.65,1.19-1.38-.55.21-1,.75-.26.36.29.73.59.46a24.47,24.47,0,0,0,2.2-2.12c-.64-.74-1.12-.46-1.47.84-.26.35.3.75.59.46,1.22-.45,1.53-1,.94-1.79.54.32.51.43-.1.33-.24.39.28.7.59.46,1.1-.8,1.13-.89.1-.26-.24.36.28.74.58.45,1-.41,1.34-1,1-1.91.53.56.9.38,1.13-.57.24-.35-.3-.76-.59-.45-.86.92-1.1,2.24.2.67a.37.37,0,0,0-.53-.53l-1.73,1.64c-.35.34.17.83.54.53a6.39,6.39,0,0,0,1.45-1.24c-.13.37.37.61.62.37,1-.59,1.07-.85.23-.76a.38.38,0,0,0,.59.45l.08-.82a.38.38,0,0,0,.59.46l.85-1a.38.38,0,0,0,.52.52l2.22-.85a.38.38,0,0,0,.29-.69c-1.57-.77-2.51-.22-3.75,1-.35.34.17.82.53.53l4.1,1.31a.37.37,0,0,0,.72-.2c-.61-2-1.52-2.25-3.36-2.68-3.16-.75,1.66,1.24.48-.31-.53-.7-2.18,1.21-2.28,1.32s-.08.67.27.64c1.88-.16,1.21.07,2.83-.9a.38.38,0,0,0-.28-.69c-2.22.54-.65-.17-1.24.78a.39.39,0,0,0-.43-.56c-3.06,1.18-.34-.1-.91.84a.38.38,0,0,0-.59-.45l.13.51c.23-.37-.28-.74-.59-.45-.92.6-1.09.83-.5.68.14-.38-.37-.57-.63-.36-1.12.3-1.49.88-1.08,1.72-.37-.77-.75-.63-1.12.4-.3.37.19.89.53.53.88-.94,1-2.12-.05-.58-.24.35.3.76.59.45l1.39-1.49a.37.37,0,0,0-.53-.53c-1.35.84-1.55,1.19-.59,1.05.25-.38-.28-.7-.59-.45-1.1.81-1.13.88-.1.21a.37.37,0,0,0-.58-.46,16.26,16.26,0,0,0-2.12,2.35.37.37,0,0,0,.53.53,9.23,9.23,0,0,0,2.11-2.21c.3-.37-.18-.88-.53-.53-1.33,1.34-1.47,2.41,0,.44.26-.33-.31-.77-.58-.45-.9,1-3,4.28-.63,1,.26-.36-.29-.73-.59-.46s-3.15,2.55-3.19,3.09c-.11,1.4,2.14-1.87,2.13-1.87.26-.34-.31-.77-.59-.45-2.33,2.62-2.42,3.43-.16.06.24-.35-.3-.75-.59-.45,0,0-3.47,3-2.22,3.38a16.8,16.8,0,0,0,1.81-2.43c.25-.36-.29-.73-.59-.45s-3.62,2.9-3.62,3.31c0,1.4,2.79-2.13,2.81-2.15a.38.38,0,0,0-.53-.53L699,145.82c-.38.3.15.82.53.53l3.93-3.13c.34-.27-.1-.78-.46-.59-1,.52-3.93,1.82-4.49,2.81-.85,1.46,3.6-2.87,1.38-.81a.38.38,0,0,0-.45-.59,15,15,0,0,0-2.44,1.77c-.33.27.1.78.46.59,1.18-.65,4.78-3.45,1.32-1-.88.62-2.52,2.33-.43.8-.8.58-5.62,1.78-5,3.07a42.12,42.12,0,0,0,4.22-2.28.37.37,0,0,0-.29-.68c-7.9,2.44-14,7.91-22.07,10.13a.37.37,0,0,0,.2.72,23.93,23.93,0,0,0,2.49-.64c0-.5,0-.67-.19-.52s-.07.26.36.43a7.63,7.63,0,0,1,2.93-1.89c.44-.19.06-.84-.38-.64Z" transform="translate(-112 -83.2)"/><path class="cls-43" d="M657.18,134a87.42,87.42,0,0,0,3.27,29.34L676.62,154a10.74,10.74,0,0,0,3.41-2.64c1.32-1.79,1.28-4.16,1.12-6.35a103.18,103.18,0,0,0-3.31-19.48" transform="translate(-112 -83.2)"/><path class="cls-44" d="M655.68,134A93.87,93.87,0,0,0,659,163.76a1.53,1.53,0,0,0,2.21.9L675,156.72c2.71-1.56,5.94-3,7.16-6.07,1.33-3.34.44-7.55,0-11a113.71,113.71,0,0,0-2.83-14.51,1.5,1.5,0,0,0-2.9.79c.91,3.49,1.71,7,2.27,10.56.52,3.25,1.85,7.91,1.05,11.19-1.13,4.62-6.62,6.63-10.31,8.77l-9.71,5.6,2.21.89A90.89,90.89,0,0,1,658.68,134c.1-1.93-2.9-1.92-3,0Z" transform="translate(-112 -83.2)"/><path class="cls-43" d="M685.86,171a163.72,163.72,0,0,1,9,28.89l2.21-1.7c-2.12-1.62-9-28.73-8.08-29.06l-1.85-1q2.36,10.57,4.46,21.19c.37,1.9,3.26,1.1,2.89-.79q-2.1-10.64-4.45-21.2a1.51,1.51,0,0,0-1.85-1c-5.75,2-1.06,10.25.08,14.09l3.9,13.14c.82,2.74,1.06,5.54,3.38,7.31,1.13.87,2.45-.55,2.21-1.69a164,164,0,0,0-9-28.89c-.73-1.76-3.63-1-2.89.8Z" transform="translate(-112 -83.2)"/><path class="cls-43" d="M690.77,176.91a16.22,16.22,0,0,1-1.89-5.15,11.94,11.94,0,0,0-1-3.95L687,170l1.94-.77c1.2-.48,1.64-2.63,0-2.89-4-.65-3.37,5.53-3,8.05.29,1.91,3.18,1.1,2.89-.79a12.85,12.85,0,0,1,.31-5.31l-.69.89.4-.17-1.15.15.43.07v-2.89l-1.95.77a1.53,1.53,0,0,0-.9,2.2c.71,1.41.54,3.12,1,4.63a23.53,23.53,0,0,0,1.92,4.47c.88,1.72,3.47.2,2.59-1.51Z" transform="translate(-112 -83.2)"/><path class="cls-43" d="M676.48,132a24.89,24.89,0,0,1-1.19-10.28c.16-1.92-2.84-1.91-3,0a27,27,0,0,0,1.3,11.08c.6,1.83,3.5,1,2.89-.8Z" transform="translate(-112 -83.2)"/><path class="cls-43" d="M675.29,126.48q-1.71-5-3.71-9.84c-.72-1.77-3.62-1-2.89.79q2,4.88,3.71,9.85c.62,1.81,3.52,1,2.89-.8Z" transform="translate(-112 -83.2)"/><path class="cls-43" d="M672.83,118.94a54,54,0,0,1-2.11-5.18l-2.51,1.46,1.86,2c1.33,1.41,3.45-.72,2.13-2.12l-1.86-2a1.51,1.51,0,0,0-2.51,1.46,61.81,61.81,0,0,0,2.41,5.9c.82,1.75,3.41.22,2.59-1.51Z" transform="translate(-112 -83.2)"/><path class="cls-43" d="M668.42,114.16l1.87,2.38a1.52,1.52,0,0,0,2.12,0,1.55,1.55,0,0,0,0-2.13L670.54,112a1.52,1.52,0,0,0-2.12,0,1.54,1.54,0,0,0,0,2.12Z" transform="translate(-112 -83.2)"/><path class="cls-43" d="M668.53,114.75c1.58,1.13,5.58,3.14,6.17,5.14.65,2.23-.82,6.53-1.14,8.77l2.94.4c-.1-3.31.55-7.71-1-10.78-1.39-2.75-4-4.59-5.38-7.53l-2.59,1.52c1.74,2.88,4.12,3.93,6.63,5.93,3.58,2.86.64,11,0,15.14-.28,1.88,2.61,2.7,2.89.79l1.44-9.52c.25-1.63,1.24-4.49.61-6.19-.4-1.06-1.53-1.62-2.41-2.2-2.5-1.62-5-2.81-6.59-5.47-1-1.68-3.38-.21-2.59,1.52a26.46,26.46,0,0,0,4.28,6.11c2.26,2.72,1.59,7.28,1.69,10.68,0,1.6,2.7,2.14,3,.39.44-3.06,2.23-8.48,1.06-11.35-1-2.56-5.39-4.46-7.47-5.94-1.57-1.12-3.07,1.48-1.51,2.59Z" transform="translate(-112 -83.2)"/></g></g></svg>