<?xml version="1.0" encoding="utf-8"?>
<!-- Generator: Adobe Illustrator 23.0.1, SVG Export Plug-In . SVG Version: 6.00 Build 0)  -->
<svg version="1.1" id="Layer_1" xmlns="http://www.w3.org/2000/svg" xmlns:xlink="http://www.w3.org/1999/xlink" x="0px" y="0px"
	 viewBox="0 0 512 512" style="enable-background:new 0 0 512 512;" xml:space="preserve">
<style type="text/css">
	.st0{fill:#FF6B81;}
	.st1{fill:#56788B;}
	.st2{fill:#415E6F;}
	.st3{fill:#FFFFFF;}
	.st4{fill:#90ABBD;}
	.st5{fill:#FBDF63;}
	.st6{fill:#FFA402;}
	.st7{fill:#ED2061;}
</style>
<g>
	<path class="st0" d="M497.1,103.4v304.3c0,4.1-3.4,7.5-7.5,7.5H38.7c-13.1,0-23.7-10.7-23.7-23.8v-288c0-13.1,10.7-23.8,23.7-23.8
		h434.7C486.4,79.6,497.1,90.3,497.1,103.4z"/>
	<g>
		<path class="st1" d="M68.7,79.6v335.6h-30c-13.1,0-23.7-10.7-23.7-23.8v-288c0-13.1,10.7-23.8,23.7-23.8L68.7,79.6z"/>
		<path class="st1" d="M497.1,103.4v304.3c0,4.1-3.4,7.5-7.5,7.5h-46.2V79.6h30C486.4,79.6,497.1,90.3,497.1,103.4L497.1,103.4z"/>
		<path class="st2" d="M497.1,103.4v304.3c0,4.1-3.4,7.5-7.5,7.5h-20c4.2,0,7.5-3.4,7.5-7.5V103.4c0-13.1-10.6-23.8-23.7-23.8h20
			C486.4,79.6,497.1,90.3,497.1,103.4z"/>
	</g>
	<path class="st3" d="M303.4,272.4l-72.9-43.8c-1.8-1.1-4-1.1-5.8-0.1c-1.8,1-2.9,2.9-2.9,5v87.6c0,2.1,1.1,4,2.9,5
		c0.9,0.5,1.8,0.7,2.8,0.7c1,0,2-0.3,2.9-0.8l72.9-43.8c1.7-1,2.8-2.9,2.8-4.9S305.1,273.4,303.4,272.4L303.4,272.4z"/>
	<g>
		<path class="st4" d="M319.3,459.9H22.6c-4.1,0-7.5,3.4-7.5,7.5s3.4,7.5,7.5,7.5h296.7c4.1,0,7.5-3.4,7.5-7.5
			C326.8,463.3,323.4,459.9,319.3,459.9z"/>
	</g>
	<g>
		<path class="st5" d="M300.3,31.6v95.6c0,13.8-11.2,24.9-24.9,24.9h-52.6l-16.1,23.1c-1.4,2-3.7,3.2-6.2,3.2s-4.8-1.2-6.2-3.2
			l-16-23.1h-52.6c-13.8,0-24.9-11.2-24.9-24.9V31.6c0-13.7,11.2-24.9,24.9-24.9h149.6C289.2,6.6,300.3,17.8,300.3,31.6z"/>
		<path class="st0" d="M232.9,54.6C232.9,54.6,232.9,54.6,232.9,54.6c-8.7-8.7-23-8.7-31.7,0l-0.6,0.6l-0.6-0.6
			c-4.2-4.2-9.9-6.6-15.9-6.6h0c-6,0-11.6,2.3-15.8,6.6c-4.2,4.2-6.6,9.9-6.6,15.8c0,6,2.3,11.6,6.6,15.8l28.7,28.7
			c1,1,2.3,1.5,3.5,1.5s2.6-0.5,3.5-1.5l28.7-28.7C241.6,77.6,241.6,63.4,232.9,54.6L232.9,54.6z"/>
		<path class="st6" d="M300.3,31.6v95.6c0,13.8-11.2,24.9-24.9,24.9h-20c13.8,0,24.9-11.2,24.9-24.9V31.6
			c0-13.7-11.2-24.9-24.9-24.9h20C289.2,6.6,300.3,17.8,300.3,31.6z"/>
	</g>
</g>
<path class="st0" d="M107.8,460.8c0,15.9-12.9,28.8-28.8,28.8c-3.5,0-6.9-0.6-10-1.8c-11-4.1-18.8-14.6-18.8-27
	c0-12.4,7.8-22.9,18.8-27c3.1-1.2,6.5-1.8,10-1.8C94.9,432,107.8,444.9,107.8,460.8L107.8,460.8z"/>
<path class="st7" d="M107.8,460.8c0,15.9-12.9,28.8-28.8,28.8c-3.5,0-6.9-0.6-10-1.8c11-4.1,18.8-14.6,18.8-27
	c0-12.4-7.8-22.9-18.8-27c3.1-1.2,6.5-1.8,10-1.8C94.9,432,107.8,444.9,107.8,460.8L107.8,460.8z"/>
</svg>
