<svg height="512pt" viewBox="0 0 512 512" width="512pt" xmlns="http://www.w3.org/2000/svg"><path d="m500.757812 261.621094c0 138.28125-112.097656 250.378906-250.378906 250.378906s-250.378906-112.097656-250.378906-250.378906 112.097656-250.378906 250.378906-250.378906 250.378906 112.097656 250.378906 250.378906zm0 0" fill="#2ed0e1"/><path d="m356.664062 143.074219c0 5.644531-4.578124 10.21875-10.222656 10.21875-5.640625 0-10.21875-4.574219-10.21875-10.21875s4.578125-10.21875 10.21875-10.21875c5.644532 0 10.222656 4.574219 10.222656 10.21875zm20.4375-10.21875c-5.644531 0-10.21875 4.574219-10.21875 10.21875s4.574219 10.21875 10.21875 10.21875c5.644532 0 10.21875-4.574219 10.21875-10.21875s-4.574218-10.21875-10.21875-10.21875zm30.660157 0c-5.644531 0-10.222657 4.574219-10.222657 10.21875s4.578126 10.21875 10.222657 10.21875 10.21875-4.574219 10.21875-10.21875-4.574219-10.21875-10.21875-10.21875zm0 0" fill="#ade8f0"/><path d="m295.34375 275.929688h-235.046875c-11.289063 0-20.441406-9.152344-20.441406-20.441407v-235.050781c0-11.285156 9.152343-20.4375 20.441406-20.4375h235.046875c11.289062 0 20.441406 9.152344 20.441406 20.4375v235.050781c0 11.289063-9.152344 20.441407-20.441406 20.441407zm0 0" fill="#015aad"/><path d="m295.34375 275.929688h-204.390625c-11.289063 0-20.4375-9.152344-20.4375-20.441407v-235.050781c0-11.285156 9.148437-20.4375 20.4375-20.4375h204.390625c11.289062 0 20.441406 9.152344 20.441406 20.4375v235.050781c0 11.289063-9.152344 20.441407-20.441406 20.441407zm0 0" fill="#0573cd"/><path d="m252.980469 153.476562-45.125-67.640624c3.621093-5.589844 5.734375-12.25 5.734375-19.410157 0-19.753906-16.015625-35.765625-35.769532-35.765625-19.753906 0-35.769531 16.011719-35.769531 35.765625 0 7.933594 2.585938 15.261719 6.957031 21.191407l-45.839843 65.820312c-18.292969 1.578125-32.652344 16.921875-32.652344 35.625 0 19.753906 16.011719 35.769531 35.769531 35.769531 14.945313 0 27.746094-9.175781 33.09375-22.195312h76.882813c5.347656 13.019531 18.148437 22.195312 33.09375 22.195312 19.757812 0 35.769531-16.015625 35.769531-35.769531 0-18.53125-14.089844-33.769531-32.144531-35.585938zm-36.71875 22.007813h-76.882813c-2.089844-5.082031-5.3125-9.578125-9.359375-13.171875l42.085938-60.578125c1.859375.300781 3.769531.460937 5.714843.460937 2.605469 0 5.140626-.285156 7.585938-.8125l40.578125 60.613282c-4.214844 3.644531-7.570313 8.253906-9.722656 13.488281zm0 0" fill="#81ade2"/><path d="m142.050781 189.0625c0 4.59375-.875 8.976562-2.453125 13.011719-4.03125 1.578125-8.417968 2.453125-13.011718 2.453125-19.753907 0-35.769532-16.011719-35.769532-35.769532 0-4.59375.875-8.976562 2.453125-13.011718 4.035157-1.578125 8.421875-2.453125 13.015625-2.453125 19.753906 0 35.765625 16.015625 35.765625 35.769531zm107.304688-35.769531c-4.589844 0-8.976563.875-13.011719 2.453125-1.578125 4.035156-2.453125 8.417968-2.453125 13.011718 0 19.757813 16.015625 35.769532 35.769531 35.769532 4.59375 0 8.976563-.875 13.011719-2.453125 1.578125-4.035157 2.453125-8.417969 2.453125-13.011719 0-19.753906-16.011719-35.769531-35.769531-35.769531zm-71.535157-122.632813c-4.59375 0-8.980468.875-13.011718 2.453125-1.578125 4.03125-2.453125 8.417969-2.453125 13.011719 0 19.753906 16.011719 35.769531 35.765625 35.769531 4.59375 0 8.980468-.875 13.015625-2.453125 1.578125-4.035156 2.453125-8.421875 2.453125-13.015625 0-19.753906-16.015625-35.765625-35.769532-35.765625zm0 0" fill="#b1c9eb"/><path d="m491.5625 419.003906h-204.394531c-11.285157 0-20.4375-9.152344-20.4375-20.441406v-204.390625c0-11.289063 9.152343-20.4375 20.4375-20.4375h204.394531c11.285156 0 20.4375 9.148437 20.4375 20.4375v204.390625c0 11.289062-9.152344 20.441406-20.4375 20.441406zm0 0" fill="#e659a9"/><path d="m491.5625 419.003906h-165.558594c-11.289062 0-20.4375-9.152344-20.4375-20.441406v-204.390625c0-11.289063 9.148438-20.4375 20.4375-20.4375h165.558594c11.285156 0 20.4375 9.148437 20.4375 20.4375v204.390625c0 11.289062-9.152344 20.441406-20.4375 20.441406zm0 0" fill="#fd73c4"/><path d="m381.242188 292.824219-75.09375-32.648438c-4.097657-1.78125-4.097657-7.589843 0-9.371093l75.09375-32.648438c5.195312-2.261719 11.101562-2.261719 16.296874 0l75.09375 32.648438c4.097657 1.78125 4.097657 7.589843 0 9.371093l-75.09375 32.648438c-5.195312 2.257812-11.101562 2.257812-16.296874 0zm57.320312 3.949219-37.601562 15.320312c-7.417969 3.019531-15.722657 3.019531-23.136719 0l-37.601563-15.320312c-3.363281-1.371094-7.039062 1.101562-7.039062 4.730468v61.289063c0 2.824219 2.289062 5.109375 5.109375 5.109375h102.195312c2.820313 0 5.109375-2.285156 5.109375-5.109375v-61.289063c0-3.628906-3.675781-6.101562-7.035156-4.730468zm36.671875 33.6875v-46.710938c0-3.507812-3.511719-5.933594-6.792969-4.691406-1.945312.738281-3.234375 2.601562-3.238281 4.679687l-.136719 46.695313c-5.980468 3.160156-10.269531 11.761718-10.269531 21.878906h30.65625c0-10.089844-4.265625-18.671875-10.21875-21.851562zm0 0" fill="#fdc5e6"/><path d="m198.257812 475.210938h-112.414062c-11.289062 0-20.4375-9.152344-20.4375-20.441407v-112.414062c0-11.289063 9.148438-20.4375 20.4375-20.4375h112.414062c11.289063 0 20.441407 9.148437 20.441407 20.4375v112.414062c0 11.289063-9.152344 20.441407-20.441407 20.441407zm0 0" fill="#fc6930"/><path d="m198.257812 475.210938h-76.644531c-11.289062 0-20.441406-9.152344-20.441406-20.441407v-112.414062c0-11.289063 9.152344-20.4375 20.441406-20.4375h76.644531c11.289063 0 20.441407 9.148437 20.441407 20.4375v112.414062c0 11.289063-9.152344 20.441407-20.441407 20.441407zm0 0" fill="#fd7d43"/><path d="m230.4375 300.921875 11.441406 11.441406c3.160156 3.160157 3.160156 8.28125 0 11.441407l-110.898437 110.898437c-6.316407 6.316406-16.5625 6.316406-22.882813 0l-55.652344-55.652344c-3.160156-3.160156-3.160156-8.28125 0-11.441406l11.441407-11.441406c3.160156-3.160157 8.28125-3.160157 11.441406 0l38.492187 38.488281c3.160157 3.160156 8.28125 3.160156 11.441407 0l93.734375-93.734375c3.15625-3.160156 8.28125-3.160156 11.441406 0zm0 0" fill="#fff5f5"/></svg>