<svg height="512pt" viewBox="0 -6 512 512" width="512pt" xmlns="http://www.w3.org/2000/svg"><path d="m501 256c0 135.308594-109.691406 245-245 245s-245-109.691406-245-245 109.691406-245 245-245 245 109.691406 245 245zm0 0" fill="#fdb44c"/><path d="m95.730469 365.578125-9.46875 9.230469c-1.394531 1.355468-2.027344 3.3125-1.699219 5.230468l2.234375 13.035157c.828125 4.828125-4.242187 8.511719-8.578125 6.230469l-11.707031-6.152344c-1.722657-.90625-3.777344-.90625-5.5 0l-5.910157 3.117187c-8.710937-12.453125-16.292968-25.761719-22.597656-39.761719.722656-.507812 1.582032-.875 2.5625-1.015624l13.089844-1.902344c1.925781-.28125 3.589844-1.488282 4.449219-3.234375l5.855469-11.859375c2.167968-4.394532 8.433593-4.394532 10.601562 0l5.855469 11.859375c.859375 1.746093 2.523437 2.953125 4.449219 3.234375l13.089843 1.902344c4.847657.703124 6.785157 6.664062 3.273438 10.085937zm0 0" fill="#fc6930"/><path d="m146.539062 338.496094 5.855469 11.859375c.859375 1.746093 2.523438 2.957031 4.449219 3.234375l13.089844 1.902344c4.847656.703124 6.785156 6.664062 3.277344 10.085937l-9.472657 9.230469c-1.390625 1.355468-2.027343 3.3125-1.699219 5.230468l2.234376 13.035157c.828124 4.832031-4.238282 8.511719-8.578126 6.234375l-11.703124-6.15625c-1.722657-.90625-3.78125-.90625-5.503907 0l-11.707031 6.15625c-4.335938 2.277344-9.40625-1.402344-8.578125-6.234375l2.238281-13.035157c.328125-1.917968-.308594-3.875-1.703125-5.230468l-9.46875-9.230469c-3.507812-3.421875-1.574219-9.382813 3.277344-10.085937l13.085937-1.902344c1.925782-.28125 3.589844-1.488282 4.453126-3.234375l5.851562-11.859375c2.167969-4.394532 8.433594-4.394532 10.601562 0zm66.921876 0-5.855469 11.859375c-.859375 1.746093-2.523438 2.957031-4.449219 3.234375l-13.089844 1.902344c-4.847656.703124-6.785156 6.664062-3.277344 10.085937l9.472657 9.230469c1.390625 1.355468 2.027343 3.3125 1.699219 5.230468l-2.234376 13.035157c-.828124 4.832031 4.238282 8.511719 8.578126 6.234375l11.703124-6.15625c1.722657-.90625 3.78125-.90625 5.503907 0l11.707031 6.15625c4.335938 2.277344 9.40625-1.402344 8.578125-6.234375l-2.238281-13.035157c-.328125-1.917968.308594-3.875 1.703125-5.230468l9.46875-9.230469c3.507812-3.421875 1.574219-9.382813-3.277344-10.085937l-13.085937-1.902344c-1.925782-.28125-3.589844-1.488282-4.453126-3.234375l-5.851562-11.859375c-2.167969-4.394532-8.433594-4.394532-10.601562 0zm0 0" fill="#fcf498"/><path d="m335 270h-320c-8.285156 0-15-6.714844-15-15v-200c0-8.285156 6.714844-15 15-15h320c8.285156 0 15 6.714844 15 15v200c0 8.285156-6.714844 15-15 15zm0 0" fill="#015aad"/><path d="m350 55v200c0 8.285156-6.714844 15-15 15h-175v39.980469c0 8.257812-9.441406 12.957031-16.027344 7.980469l-63.464844-47.960938h-31.714843c-8.28125 0-15-6.714844-15-15v-200c0-8.285156 6.71875-15 15-15h286.207031c8.285156 0 15 6.714844 15 15zm0 0" fill="#0573cd"/><path d="m190 135v-10c0-2.761719 2.238281-5 5-5h175c2.761719 0 5 2.238281 5 5v10c0 2.761719-2.238281 5-5 5h-175c-2.761719 0-5-2.238281-5-5zm230 25h-225c-2.761719 0-5 2.238281-5 5v10c0 2.761719 2.238281 5 5 5h225c2.761719 0 5-2.238281 5-5v-10c0-2.761719-2.238281-5-5-5zm-130 40h-95c-2.761719 0-5 2.238281-5 5v10c0 2.761719 2.238281 5 5 5h95c2.761719 0 5-2.238281 5-5v-10c0-2.761719-2.238281-5-5-5zm0 0" fill="#ade8f0"/><path d="m118.070312 204.597656c-1.210937 11.605469-11.605468 20.03125-23.210937 18.820313-11.605469-1.214844-20.035156-11.605469-18.820313-23.214844 1.214844-11.605469 11.605469-20.03125 23.214844-18.820313 11.605469 1.214844 20.03125 11.609376 18.816406 23.214844zm41.992188-174.515625c-13.660156-16.855469-33.066406-27.378906-54.644531-29.632812-21.578125-2.253907-42.742188 4.027343-59.589844 17.6875-15.398437 12.484375-25.015625 30.21875-27.074219 49.933593-.789062 7.546876 4.6875 14.300782 12.230469 15.089844l12.464844 1.300782c7.542969.789062 14.296875-4.6875 15.085937-12.230469.949219-9.089844 5.382813-17.265625 12.484375-23.019531 8.726563-7.078126 19.757813-10.394532 30.925781-8.902344 31.304688 4.191406 35.601563 29.578125 34.914063 36.109375-.875 8.3125-6.113281 15.535156-13.503906 19.433593 0 0-31.992188 23.960938-39.492188 40.527344-5.621093 12.410156 2.6875 26.679688 16.238281 28.097656 8.628907.902344 16.6875-3.953124 20.316407-11.832031 3.90625-8.480469 21.335937-21.273437 21.335937-21.273437 19.105469-10.078125 33.8125-28.679688 34.828125-50.253906 1.417969-30.117188-16.519531-51.035157-16.519531-51.035157zm0 0" fill="#ade8f0"/><path d="m176.582031 81.117188c-1.015625 21.574218-15.722656 40.175781-34.828125 50.253906 0 0-3.96875 2.914062-8.539062 6.878906-5.792969 5.023438-13.964844 6.253906-20.9375 3.070312-12.792969-5.835937-15.394532-22.90625-4.90625-32.269531 8.542968-7.628906 15.984375-13.199219 15.984375-13.199219 7.390625-3.898437 12.628906-11.121093 13.503906-19.433593.6875-6.535157-3.609375-31.917969-34.914063-36.109375-11.167968-1.492188-22.199218 1.824218-30.925781 8.902344-7.136719 5.78125-11.578125 14.011718-12.5 23.15625-.753906 7.496093-7.582031 12.878906-15.070312 12.09375l-12.464844-1.300782c-7.472656-.78125-13.015625-7.429687-12.253906-14.902344 2.023437-19.792968 11.648437-37.597656 27.097656-50.121093 16.847656-13.660157 38.011719-19.941407 59.589844-17.6875 21.578125 2.253906 40.984375 12.777343 54.644531 29.632812 0 0 17.9375 20.917969 16.519531 51.035157zm0 0" fill="#d3f1f5"/><path d="m497 430h-267c-8.285156 0-15-6.714844-15-15v-150c0-8.285156 6.714844-15 15-15h267c8.285156 0 15 6.714844 15 15v150c0 8.285156-6.714844 15-15 15zm0 0" fill="#e659a9"/><path d="m512 265v150c0 8.285156-6.714844 15-15 15h-142.898438l-58.074218 43.886719c-6.585938 4.976562-16.027344.277343-16.027344-7.980469v-35.90625h-20c-8.285156 0-15-6.714844-15-15v-150c0-8.285156 6.714844-15 15-15h237c8.285156 0 15 6.714844 15 15zm0 0" fill="#fd73c4"/><path d="m395 295v10c0 2.761719-2.238281 5-5 5h-150c-2.761719 0-5-2.238281-5-5v-10c0-2.761719 2.238281-5 5-5h150c2.761719 0 5 2.238281 5 5zm-5 35h-150c-2.761719 0-5 2.238281-5 5v10c0 2.761719 2.238281 5 5 5h150c2.761719 0 5-2.238281 5-5v-10c0-2.761719-2.238281-5-5-5zm-60 40h-90c-2.761719 0-5 2.238281-5 5v10c0 2.761719 2.238281 5 5 5h90c2.761719 0 5-2.238281 5-5v-10c0-2.761719-2.238281-5-5-5zm0 0" fill="#fdade0"/><path d="m472.261719 391.726562c0 11.667969-9.460938 21.128907-21.128907 21.128907-11.671874 0-21.132812-9.460938-21.132812-21.128907 0-11.671874 9.460938-21.132812 21.132812-21.132812 11.667969 0 21.128907 9.460938 21.128907 21.132812zm-21.128907-38.035156c11.042969 0 20-8.957031 20-20v-108.691406c0-8.285156-6.71875-15-15-15h-10c-8.285156 0-15 6.714844-15 15v108.691406c0 11.042969 8.953126 20 20 20zm0 0" fill="#fde0b8"/><path d="m471.132812 225v85c0 11.046875-8.957031 20-20 20-11.046874 0-20-8.953125-20-20v-85c0-8.285156 6.714844-15 15-15h10c8.28125 0 15 6.714844 15 15zm0 0" fill="#fff5f5"/></svg>