<?xml version="1.0" encoding="utf-8"?>
<!-- Generator: Adobe Illustrator 23.0.1, SVG Export Plug-In . SVG Version: 6.00 Build 0)  -->
<svg version="1.1" id="Calque_1" xmlns="http://www.w3.org/2000/svg" xmlns:xlink="http://www.w3.org/1999/xlink" x="0px" y="0px"
	 viewBox="0 0 429 429" style="enable-background:new 0 0 429 429;" xml:space="preserve">
<style type="text/css">
	.st0{fill:#F2F2F2;}
	.st1{fill:#0F9D58;}
	.st2{fill:#57BB8A;}
	.st3{fill:#F7F7F7;}
	.st4{fill:#F1F1F1;}
	.st5{fill:#F4B400;}
	.st6{opacity:0.2;fill:#FFFFFF;enable-background:new    ;}
	.st7{opacity:0.2;fill:#BF360C;enable-background:new    ;}
	.st8{fill:url(#SVGID_1_);}
	.st9{opacity:0.2;fill:#263238;enable-background:new    ;}
	.st10{fill:url(#SVGID_2_);}
</style>
<title>classroom</title>
<path class="st0" d="M359.4,429h-290C31.1,429,0,397.9,0,359.5c0,0,0,0,0,0v-290C0,31.1,31.1,0,69.5,0c0,0,0,0,0,0h290
	C397.9,0,429,31.1,429,69.5c0,0,0,0,0,0v290C429,397.9,397.8,429,359.4,429z"/>
<path class="st1" d="M88.5,109.7H340v209.5H88.5V109.7z"/>
<path class="st2" d="M270.2,221.4c8.7,0,15.7-7,15.7-15.7s-7-15.7-15.7-15.7s-15.7,7-15.7,15.7S261.5,221.4,270.2,221.4L270.2,221.4
	z M270.2,231.9c-16.9,0-35,8.9-35,20v11.4H305v-11.4C305,240.8,286.9,231.9,270.2,231.9z M158.4,221.4c8.7,0,15.7-7,15.7-15.7
	s-7-15.7-15.7-15.7c-8.7,0-15.7,7-15.7,15.7C142.6,214.4,149.7,221.4,158.4,221.4z M158.4,231.9c-16.9,0-35,8.9-35,20v11.4h69.9
	v-11.4C193.3,240.8,175.2,231.9,158.4,231.9z"/>
<path class="st3" d="M214.3,207.5c11.6,0,20.9-9.4,20.9-20.9c0-11.6-9.4-20.9-20.9-20.9c-11.6,0-20.9,9.4-20.9,20.9c0,0,0,0,0,0
	C193.3,198.1,202.7,207.5,214.3,207.5C214.2,207.5,214.2,207.5,214.3,207.5z M214.3,221.4c-23.6,0-48.9,12.5-48.9,27.9v13.9h97.8
	v-13.9C263.2,234,237.9,221.4,214.3,221.4z"/>
<path class="st4" d="M242.2,305.2H305v14h-62.8V305.2z"/>
<path class="st5" d="M347,81.8H81.6c-11.5,0-20.9,9.3-20.9,20.9c0,0,0,0,0,0.1v223.5c0,11.5,9.3,20.9,20.9,20.9c0,0,0,0,0.1,0H347
	c11.5,0,20.9-9.3,20.9-20.9c0,0,0,0,0-0.1V102.7C367.9,91.1,358.6,81.8,347,81.8C347,81.8,347,81.8,347,81.8z M340,319.3H88.5V109.7
	H340V319.3L340,319.3z"/>
<path class="st6" d="M347,81.8H81.6c-11.5,0-20.9,9.3-20.9,20.9c0,0,0,0,0,0.1v1.8c0-11.5,9.3-20.9,20.8-21c0,0,0.1,0,0.1,0H347
	c11.5,0,20.9,9.3,20.9,20.9c0,0,0,0,0,0.1v-1.8C367.9,91.1,358.6,81.8,347,81.8C347,81.8,347,81.8,347,81.8z"/>
<path class="st7" d="M347,345.4H81.6c-11.5,0-20.9-9.3-20.9-20.9c0,0,0,0,0-0.1v1.8c0,11.5,9.3,20.9,20.9,20.9c0,0,0,0,0.1,0H347
	c11.5,0,20.9-9.3,20.9-20.9c0,0,0,0,0-0.1v-1.8C367.9,336,358.6,345.4,347,345.4C347,345.4,347,345.4,347,345.4z"/>
<linearGradient id="SVGID_1_" gradientUnits="userSpaceOnUse" x1="135.2038" y1="951.6028" x2="135.2038" y2="951.4828" gradientTransform="matrix(738.16 0 0 -227.27 -99514.5859 216592.4531)">
	<stop  offset="0" style="stop-color:#BF360C;stop-opacity:0.2"/>
	<stop  offset="1" style="stop-color:#BF360C;stop-opacity:2.000000e-02"/>
</linearGradient>
<path class="st8" d="M305,319.3h-62.9l27.9,27.9h62.8L305,319.3z"/>
<path class="st9" d="M88.5,108H340v1.8H88.5V108z"/>
<path class="st6" d="M88.5,319.3H340v1.8H88.5V319.3z"/>
<radialGradient id="SVGID_2_" cx="136.9666" cy="943.1135" r="0.59" gradientTransform="matrix(2159.1001 0 0 -2159.0901 -295647.2188 2036365.875)" gradientUnits="userSpaceOnUse">
	<stop  offset="0" style="stop-color:#FFFFFF;stop-opacity:0.1"/>
	<stop  offset="1" style="stop-color:#FFFFFF;stop-opacity:0"/>
</radialGradient>
<path class="st10" d="M347,81.8H81.6c-11.5,0-20.9,9.3-20.9,20.9c0,0,0,0,0,0.1v223.5c0,11.5,9.3,20.9,20.9,20.9c0,0,0,0,0.1,0H347
	c11.5,0,20.9-9.3,20.9-20.9c0,0,0,0,0-0.1V102.7C367.9,91.1,358.6,81.8,347,81.8C347,81.8,347,81.8,347,81.8z"/>
</svg>
