<svg id="Calque_1" data-name="Calque 1" xmlns="http://www.w3.org/2000/svg" xmlns:xlink="http://www.w3.org/1999/xlink" viewBox="0 0 429 429"><defs><style>.cls-1,.cls-7{fill:#fff;}.cls-2{fill:#0f9d58;}.cls-3{fill:#57bb8a;}.cls-4{fill:#f7f7f7;}.cls-5{fill:#f1f1f1;}.cls-6{fill:#f4b400;}.cls-10,.cls-7,.cls-8{opacity:0.2;isolation:isolate;}.cls-8{fill:#bf360c;}.cls-9{fill:url(#Dégradé_sans_nom_3);}.cls-10{fill:#263238;}.cls-11{fill:url(#Dégradé_sans_nom_2);}</style><linearGradient id="Dégradé_sans_nom_3" x1="-1.61" y1="-659" x2="-1.61" y2="-658.88" gradientTransform="translate(1476.33 150092.82) scale(738.16 227.27)" gradientUnits="userSpaceOnUse"><stop offset="0" stop-color="#bf360c" stop-opacity="0.2"/><stop offset="1" stop-color="#bf360c" stop-opacity="0.02"/></linearGradient><radialGradient id="Dégradé_sans_nom_2" cx="0.03" cy="-651.05" r="0.59" gradientTransform="translate(12.5 1405774.79) scale(2159.1 2159.09)" gradientUnits="userSpaceOnUse"><stop offset="0" stop-color="#fff" stop-opacity="0.1"/><stop offset="1" stop-color="#fff" stop-opacity="0"/></radialGradient></defs><title>classroom</title><path class="cls-1" d="M359.44,429.2H69.49A69.49,69.49,0,0,1,0,359.71v-290A69.49,69.49,0,0,1,69.49.2h290A69.49,69.49,0,0,1,429,69.69v290A69.55,69.55,0,0,1,359.44,429.2Z" transform="translate(0 -0.2)"/><path class="cls-2" d="M88.52,109.86H340V319.4H88.52Z" transform="translate(0 -0.2)"/><path class="cls-3" d="M270.16,221.64a15.74,15.74,0,1,0-15.74-15.74A15.74,15.74,0,0,0,270.16,221.64Zm0,10.47c-16.85,0-35,8.9-35,20V263.5H305V252.07C305,241,286.93,232.11,270.16,232.11ZM158.37,221.64a15.74,15.74,0,1,0-15.74-15.74A15.75,15.75,0,0,0,158.37,221.64Zm0,10.47c-16.85,0-35,8.9-35,20V263.5h69.85V252.07C193.33,241,175.22,232.11,158.37,232.11Z" transform="translate(0 -0.2)"/><path class="cls-4" d="M214.26,207.69a20.94,20.94,0,1,0-20.93-20.94A20.91,20.91,0,0,0,214.26,207.69Zm0,13.95c-23.6,0-48.91,12.54-48.91,27.91V263.5H263.1V249.55C263.18,234.18,237.87,221.64,214.26,221.64Z" transform="translate(0 -0.2)"/><path class="cls-5" d="M242.17,305.44H305v14H242.17v-14Z" transform="translate(0 -0.2)"/><path class="cls-6" d="M347,82H81.55a20.91,20.91,0,0,0-20.94,20.93V326.45a20.91,20.91,0,0,0,20.94,20.93H347a20.9,20.9,0,0,0,20.93-20.93V102.88A20.9,20.9,0,0,0,347,82Zm-7,237.52H88.52V109.86H340V319.47Z" transform="translate(0 -0.2)"/><path class="cls-7" d="M347,82H81.55a20.91,20.91,0,0,0-20.94,20.93v1.78A20.91,20.91,0,0,1,81.55,83.73H347a20.9,20.9,0,0,1,20.93,20.93v-1.78A20.9,20.9,0,0,0,347,82Z" transform="translate(0 -0.2)"/><path class="cls-8" d="M347,345.6H81.55a20.91,20.91,0,0,1-20.94-20.93v1.78a20.91,20.91,0,0,0,20.94,20.93H347a20.9,20.9,0,0,0,20.93-20.93v-1.78A20.9,20.9,0,0,1,347,345.6Z" transform="translate(0 -0.2)"/><path class="cls-9" d="M305,319.47H242.1L270,347.38H332.8Z" transform="translate(0 -0.2)"/><path class="cls-10" d="M88.52,108.15H340v1.78H88.52Z" transform="translate(0 -0.2)"/><path class="cls-7" d="M88.52,319.47H340v1.78H88.52Z" transform="translate(0 -0.2)"/><path class="cls-11" d="M347,82H81.55a20.91,20.91,0,0,0-20.94,20.93V326.45a20.91,20.91,0,0,0,20.94,20.93H347a20.9,20.9,0,0,0,20.93-20.93V102.88A20.9,20.9,0,0,0,347,82Z" transform="translate(0 -0.2)"/></svg>