<svg id="Calque_1" data-name="Calque 1" xmlns="http://www.w3.org/2000/svg" viewBox="0 0 428.95 429"><defs><style>.cls-1{fill:#7289da;}</style></defs><title>discord</title><path class="cls-1" d="M377.6,429H51.82c-1.16-.5-2.31-1.08-3.46-1.49C14.75,415.4.09,394.81.09,359.47q0-146.66,0-293.24C.17,27.76,27.68.16,66.15.08c99-.16,198,0,297-.08a68.88,68.88,0,0,1,26.94,5.19c21,8.81,32.29,25.7,38.88,46.62V377.59Q417.51,417.51,377.6,429ZM257.91,107.41c11,4.37,20.76,7.91,30.23,12.19s19.11,8.65,26.86,16.07c-32.29-15.9-66.81-20.35-101.9-20-34.84.33-69.11,5.85-100.9,22,16.88-15,37.64-22.4,58.07-30.72a7.59,7.59,0,0,0-4.7-1.4c-24.21,2.55-46,11.53-65.89,25.29a18,18,0,0,0-5.28,6.59c-21.58,45.55-34.76,93.24-35.25,144a21.21,21.21,0,0,0,6.18,15.41C79.82,312.6,98,321.25,118.7,326c13.1,3.05,23.07,1,32-10,5.44-6.75,5.61-9-2.63-12.11-12.36-4.69-23.31-11.78-31.88-23.55,66.89,34.18,132.62,33.85,198.52.74-.17,3.87-3.54,5.43-6,7.58a91.44,91.44,0,0,1-27.59,16.63c-2.31.91-6.18.83-4.78,5.36,2.39,7.91,15.32,17.46,23.23,16.64,24.47-2.56,46-11.37,63.43-29.33a25,25,0,0,0,7.33-18.78c-.5-37.89-10.87-73.64-21-109.88-9.88-35.67-33.36-52.8-66.8-60.71-4.28-1-8.65-2.22-13-2.8C266,105.52,262.53,104.28,257.91,107.41Z" transform="translate(-0.05)"/><path class="cls-1" d="M233.61,233.77c0-15.9,12.69-29.4,27.6-29.57,15.15-.16,28.58,14,28.5,29.82-.08,16.31-13.26,29.74-28.75,29.41C246,263.18,233.61,249.75,233.61,233.77Z" transform="translate(-0.05)"/><path class="cls-1" d="M192.59,234.18c-.25,16.31-13.51,29.66-28.91,29.25-15-.42-27.43-14.09-27.18-29.9s12.93-29.33,27.84-29.33C179.49,204.2,192.84,218.37,192.59,234.18Z" transform="translate(-0.05)"/></svg>