<svg id="Calque_1" data-name="Calque 1" xmlns="http://www.w3.org/2000/svg" viewBox="0 0 428.76 428.79"><defs><style>.cls-1{fill:#46178f;}</style></defs><title>kahoot</title><path class="cls-1" d="M.2,215c0-39.5-.5-79,.1-118.5.8-53.3,37.5-90.4,86.1-94.7,4.5-.4,8.9-.9,13.4-.9,77.7,0,155.3-.4,233,.3,34.7.3,62.9,14.6,81.8,44.7,9.5,15.2,13.9,32.3,13.9,50q.45,119.25,0,238.5c-.2,46.6-30.6,83.6-74.7,92.5a126.3,126.3,0,0,1-25.3,2.6c-77.3,0-154.7.3-232-.3-34.5-.3-62.7-14.1-81.8-43.9C4.6,369.61.4,351.91.2,333.51-.1,294,.2,254.51.2,215Zm52.4-1.5V336c0,3.3-.2,6.2,4.7,6.3,15.1.4,30.3,1.2,45.4,1.7,6.6.2,6.7.1,6.6-6.6,0-26.2,0-52.3-.2-78.5a10.48,10.48,0,0,1,3.9-8.6c9.3-8.1,18.3-16.5,27.4-24.8,4.7-4.3,5.1-4.3,6.9,1.7,11.4,37.1,22.9,74.2,34.1,111.3,1.3,4.3,3.3,5.7,7.7,5.7,12.7-.2,25.3-.1,38-.1,6.2,0,6.2-.1,4.4-6.3q-20.7-70.5-41.5-140.9c-3.8-12.8-3.8-12.8,5.5-22.3,19.5-20.1,38.9-40.3,58.4-60.3,2.9-3,2.2-3.8-1.3-5.1-13.2-4.6-26.4-9.3-39.5-14.2-3.6-1.3-6-1-8.9,1.6-24.8,22.5-49.8,44.8-74.7,67.1-5.2,4.7-10.4,9.4-15.6,14-1,.8-2,2.3-3.3,1.7-1.7-.7-1.1-2.6-1.2-4s0-3,0-4.5c0-31.3-.1-62.6.1-94,0-4.4-1.2-5.4-5.5-4.4-15,3.8-30.1,7.5-45.2,10.8-4.9,1.1-6.3,3.3-6.2,8.1C52.7,132.21,52.6,172.81,52.6,213.51Zm284.1,90a3.51,3.51,0,0,0,1.3-2.9c12.4-74.3,24.6-148.5,37.2-222.7.9-5-.4-6.6-5.2-7.4-29.4-5.1-58.7-10.4-88-15.7-6.7-1.2-6.9-1.1-5.2,5.7q25.05,101.4,50,202.8Q331.75,283.26,336.7,303.51Zm-5,23.1c-4.2,0-8.3.1-12.5,0-2.6-.1-4.4.8-5.5,3.3-3.6,8.1-7.2,16.1-10.9,24.1-1.1,2.5-1,4.3,1.6,5.8,8,5,16,10.2,23.9,15.4,2.1,1.4,3.9,1.2,6,0,7.5-4.3,15.1-8.5,22.7-12.5,2.9-1.5,3.1-3.4,2-6.1-2.5-6.5-4.8-13.1-7.3-19.6-4.7-12.3-2.1-10.1-15-10.4A41.69,41.69,0,0,0,331.7,326.61Z" transform="translate(0 -0.8)"/></svg>