<svg id="Calque_1" data-name="Calque 1" xmlns="http://www.w3.org/2000/svg" viewBox="0 0 429 429"><defs><style>.cls-1{fill:#fff;}.cls-2{fill:#1e88e5;}.cls-3{fill:#4caf50;}.cls-4{fill:#fbc02d;}.cls-5{fill:#1565c0;}.cls-6{fill:#e53935;}.cls-7{fill:#2e7d32;}</style></defs><title>meet</title><path class="cls-1" d="M359.44,429H69.49A69.49,69.49,0,0,1,0,359.51v-290A69.49,69.49,0,0,1,69.49,0h290A69.49,69.49,0,0,1,429,69.49v290A69.55,69.55,0,0,1,359.44,429Z" transform="translate(0 0)"/><rect class="cls-1" x="115.91" y="151.36" width="126.14" height="126.14"/><polygon class="cls-2" points="44.94 159.29 44.94 269.64 84.39 277.57 123.77 269.64 123.77 159.29 84.39 151.35 44.94 159.29"/><path class="cls-3" d="M313,214.46V324.88a23.68,23.68,0,0,1-23.66,23.66H123.77l-7.86-39.45,7.86-39.45H234.19V214.46l39.45-7.86Z" transform="translate(0 0)"/><path class="cls-4" d="M313,104V214.46H234.19V159.29H123.77l-7.86-39.45,7.86-39.45H289.36A23.67,23.67,0,0,1,313,104Z" transform="translate(0 0)"/><path class="cls-5" d="M123.77,269.64v78.83H68.6a23.68,23.68,0,0,1-23.66-23.66V269.64Z" transform="translate(0 0)"/><polygon class="cls-6" points="123.77 80.39 123.77 159.29 44.94 159.29 123.77 80.39"/><polygon class="cls-7" points="320.88 214.46 313.02 281.06 234.19 214.46 313.02 147.87 320.88 214.46"/><path class="cls-3" d="M384,104.93V324a7.9,7.9,0,0,1-12.83,6.16l-58.14-49V147.87l58.14-49A7.86,7.86,0,0,1,384,104.93Z" transform="translate(0 0)"/></svg>