<svg id="Calque_1" data-name="Calque 1" xmlns="http://www.w3.org/2000/svg" viewBox="0 0 429 429.01"><defs><style>.cls-1{fill:#555aac;}</style></defs><title>teams</title><path class="cls-1" d="M0,364.48V66.19c.25-.93.5-1.85.67-2.85C3.85,43.9,13.32,28.23,28.57,15.91,39.62,7,52.36,2.25,66.18,0H367.76a21.54,21.54,0,0,0,2.43.67c17.68,3.94,31.92,13.24,43.14,27.4,8.72,11,13.49,23.55,15.67,37.29V363.64c-.25,1.09-.59,2.18-.75,3.27-3.35,19.86-13.24,35.78-29.07,48-9.3,7.21-19.94,11.57-31.33,14.08H57.05c-.92-.34-1.84-.59-2.77-.92-25.38-8.3-42.64-24.8-51.1-50.28C1.68,373.53,1,368.92,0,364.48ZM293.2,143.61c-1.25-1.09-.92-2.1-.92-3-1-25-24.12-41-47.75-32.84-4.6,1.59-4.69,1.5-4.77-3.61V71.47c0-4.86-1-5.62-5.87-4.7L203,72.3Q137,84,71.12,95.68c-4,.67-5.53,2.26-5.53,6.54q.14,112.86,0,225.81c0,3.77,1.18,5.45,5,6q81.44,13.19,162.77,26.47c5.7.92,6.37.42,6.45-5.36,0-10.89.09-21.79,0-32.68,0-3.68,1.26-5.28,5.2-5.11,5.86.25,11.72.08,17.59,0C277.37,317.22,288.68,311,296,298a5.57,5.57,0,0,1,5.7-3.27c8.12.08,16.16.16,24.29,0,18.85-.42,34.43-15.42,35.1-34.27.5-13.66.34-27.4.34-41.06,0-9.72-3.52-13.07-13.16-13.07-14.24,0-28.48-.09-42.72.08-3.77.09-5.11-1.25-5.28-5-.33-9-4.1-12.56-13-12.65-12.32-.08-24.55.09-36.86-.08-10.81-.09-10.39,1.84-10.39-10.31,0-5.36,0-5.19,5-3.68,13.73,4.27,26.13,2,36.77-8.13,3.35-3.19,5.61-7.12,8.55-10.9.25,10.73,3.35,20.2,11,27.74s17.09,10.64,27.9,10.05c14.49-.75,28.23-12.31,31.66-26.89,3.86-16.51-3.43-32.51-18.26-40.22A35.08,35.08,0,0,0,320.26,123C307.36,125.09,299,132.72,293.2,143.61Z" transform="translate(0 0.01)"/><path class="cls-1" d="M239.67,253v-48.6c0-5.7.34-6,5.87-6,13.15,0,26.22.08,39.37-.09,4.19-.08,5.7,1.6,5.7,5.7-.09,25.14.17,50.28-.09,75.41-.16,17.35-11.64,28.24-29.07,28.24H246c-5.87,0-6.12-.25-6.2-6.12v-.83C239.67,284.8,239.67,268.88,239.67,253Z" transform="translate(0 0.01)"/><path class="cls-1" d="M300,250.27V221.79c0-5.45.42-5.79,5.61-5.79h39.79c5.62,0,5.79.26,5.79,6v35.19c0,16.09-11.06,27.4-27.15,27.82-6,.17-12,.08-18,0-5.69,0-6-.34-6-5.87Z" transform="translate(0 0.01)"/><path class="cls-1" d="M162.69,224.13c0,13.83-.09,27.65.08,41.39.08,4-1.34,5.7-5.36,5.2-3.6-.42-7.21-.67-10.81-.75-3.26-.09-4.44-1.51-4.35-4.61.08-8.55,0-17,0-25.56V183.74c0-5-.51-5.53-5.62-5.27-6.11.25-12.23.5-18.34.92-3.61.25-5.11-1.09-5.11-4.78.25-13.91-2.1-12.15,12.4-13.15,20.27-1.43,40.62-2.52,60.9-4,8.88-.67,8.88-.83,8.88,8,0,10.39,0,10.3-10.39,10.56-5.86.08-11.73.75-17.51.75-3.68,0-4.86,1.42-4.86,5C162.77,196,162.69,210.06,162.69,224.13Z" transform="translate(0 0.01)"/><path class="cls-1" d="M301.41,157.94c0-13.58,11.31-25,24.72-24.8a25.07,25.07,0,0,1,24.63,25c-.09,13.41-11.65,24.81-25.05,24.64C312.47,182.66,301.41,171.34,301.41,157.94Z" transform="translate(0 0.01)"/><path class="cls-1" d="M256.68,116.29a24.69,24.69,0,1,1-13.07,45.59,7.46,7.46,0,0,1-3.85-6.88c.08-9,.25-17.84-.09-26.81-.16-4.44,1.76-7.12,5.37-9A25.15,25.15,0,0,1,256.68,116.29Z" transform="translate(0 0.01)"/></svg>