<?xml version="1.0" encoding="utf-8"?>
<!-- Generator: Adobe Illustrator 23.0.1, SVG Export Plug-In . SVG Version: 6.00 Build 0)  -->
<svg version="1.1" id="Calque_1" xmlns="http://www.w3.org/2000/svg" xmlns:xlink="http://www.w3.org/1999/xlink" x="0px" y="0px"
	 viewBox="0 0 1920 1080" style="enable-background:new 0 0 1920 1080;" xml:space="preserve">
<style type="text/css">
	.st0{fill:#529EFE;}
</style>
<g>
	<path class="st0" d="M1175.1,541.5c0,39.3,0.6,78.7-0.2,118c-0.7,35.8-15.5,64.4-47.1,82.9c-14.7,8.6-31,12.5-47.9,12.6
		c-79.3,0.3-158.6,0.7-238-0.1c-35.4-0.4-64-15.5-82.5-46.9c-8.5-14.6-12.5-30.7-12.5-47.3c-0.3-79.7-0.7-159.3,0.1-239
		c0.4-35.1,15.5-63.3,46.5-81.7c11.8-7,24.8-10.4,38.4-12c11-1.3,21.9-1,32.9-1c69,0,138,0,207,0c15.6,0,31,1.7,45.5,7.8
		c31.1,13.3,49.4,36.8,55.6,69.9c1.7,9,2.2,18.2,2.1,27.3C1175.1,468.5,1175.1,505,1175.1,541.5
		C1175.1,541.5,1175.1,541.5,1175.1,541.5z M935,623.9C935,623.9,935,623.9,935,623.9c23.2,0.1,46.3-0.2,69.5,0.2
		c13,0.2,21.8-8.6,21.6-21.8c-0.4-24.8-0.1-49.7-0.1-74.5c0-8.7,0-17.3-1-25.9c-1.7-14-8.1-25.1-19.2-33.7c-10.3-8-22.4-10-34.9-10
		c-45.2-0.2-90.3-0.1-135.5-0.1c-16.2,0-23.3,6.8-23.2,23.1c0.2,31.6-1,63.3,0.8,94.9c0.9,15.6,7.4,28,19.6,37.7
		c10,7.9,21.7,9.9,33.9,10C889.3,624.1,912.2,623.9,935,623.9z M1109.1,516.2c0.2-14.6,1.4-29.3,0.2-43.9c-0.4-5.1-1.9-9.2-6.7-11.3
		c-4.9-2.2-9.4-1-13.4,2.4c-13.4,11.2-27,22.2-40.3,33.6c-6.4,5.5-9.8,12.9-9.8,21.6c0,15,0,30,0,45c0,8.7,3.5,16,9.9,21.6
		c13.1,11.3,26.6,22.1,39.9,33.2c4.2,3.5,8.8,5,13.8,2.6c5.2-2.4,6.5-7,6.5-12.4C1109,577.8,1109.1,547,1109.1,516.2z"/>
</g>
</svg>
