<svg id="Calque_1" data-name="Calque 1" xmlns="http://www.w3.org/2000/svg" viewBox="0 0 428.79 428.4"><defs><style>.cls-1{fill:#529efe;}</style></defs><title>zoom</title><path class="cls-1" d="M429.1,215.5c0,39.3.6,78.7-.2,118-.7,35.8-15.5,64.4-47.1,82.9-14.7,8.6-31,12.5-47.9,12.6-79.3.3-158.6.7-238-.1-35.4-.4-64-15.5-82.5-46.9A93,93,0,0,1,.9,334.7C.6,255,.2,175.4,1,95.7,1.4,60.6,16.5,32.4,47.5,14,59.3,7,72.3,3.6,85.9,2c11-1.3,21.9-1,32.9-1h207c15.6,0,31,1.7,45.5,7.8,31.1,13.3,49.4,36.8,55.6,69.9A139,139,0,0,1,429,106q.15,54.75.1,109.5ZM189,297.9h0c23.2.1,46.3-.2,69.5.2,13,.2,21.8-8.6,21.6-21.8-.4-24.8-.1-49.7-.1-74.5a223.43,223.43,0,0,0-1-25.9c-1.7-14-8.1-25.1-19.2-33.7-10.3-8-22.4-10-34.9-10-45.2-.2-90.3-.1-135.5-.1-16.2,0-23.3,6.8-23.2,23.1.2,31.6-1,63.3.8,94.9.9,15.6,7.4,28,19.6,37.7,10,7.9,21.7,9.9,33.9,10C143.3,298.1,166.2,297.9,189,297.9ZM363.1,190.2c.2-14.6,1.4-29.3.2-43.9-.4-5.1-1.9-9.2-6.7-11.3s-9.4-1-13.4,2.4c-13.4,11.2-27,22.2-40.3,33.6a27.57,27.57,0,0,0-9.8,21.6v45a27.8,27.8,0,0,0,9.9,21.6c13.1,11.3,26.6,22.1,39.9,33.2,4.2,3.5,8.8,5,13.8,2.6,5.2-2.4,6.5-7,6.5-12.4C363,251.8,363.1,221,363.1,190.2Z" transform="translate(-0.53 -0.97)"/></svg>