<svg height="512pt" viewBox="-6 0 512 512" width="512pt" xmlns="http://www.w3.org/2000/svg"><path d="m500.757812 261.613281c0 138.277344-112.097656 250.375-250.378906 250.375s-250.378906-112.097656-250.378906-250.375c0-138.277343 112.097656-250.371093 250.378906-250.371093s250.378906 112.09375 250.378906 250.371093zm0 0" fill="#84deea"/><path d="m449.660156 261.613281c0 110.058594-89.21875 199.277344-199.28125 199.277344-110.058594 0-199.28125-89.21875-199.28125-199.277344 0-110.054687 89.222656-199.273437 199.28125-199.273437 110.0625 0 199.28125 89.21875 199.28125 199.273437zm0 0" fill="#2ed0e1"/><path d="m352.574219 61.316406v194.167969c0 56.4375-45.753907 102.191406-102.195313 102.191406s-102.195312-45.75-102.195312-102.191406v-194.167969c0-33.863281 27.453125-61.316406 61.316406-61.316406h81.757812c33.863282 0 61.316407 27.453125 61.316407 61.316406zm0 0" fill="#fd73c4"/><path d="m205.414062 132.851562c-5.644531 0-10.21875 4.574219-10.21875 10.21875v10.21875c0 5.644532 4.574219 10.222657 10.21875 10.222657h105.261719c8.710938 0 15.726563 7.265625 15.3125 16.070312-.390625 8.242188-7.492187 14.585938-15.746093 14.585938h-104.828126c-5.644531 0-10.21875 4.574219-10.21875 10.21875v51.097656c0 7.78125.871094 15.355469 2.519532 22.636719 1.058594 4.679687 5.1875 8.019531 9.988281 8.019531h92.753906c8.710938 0 15.726563 7.269531 15.308594 16.070313-.386719 8.246093-7.488281 14.589843-15.742187 14.589843h-60.429688c-9.5625 0-13.960938 12.046875-6.535156 18.074219 11.734375 9.527344 25.621094 16.503906 40.824218 20.082031-7.546874 1.773438-15.414062 2.71875-23.503906 2.71875-56.441406 0-102.195312-45.753906-102.195312-102.191406v-194.167969c0-33.863281 27.453125-61.316406 61.316406-61.316406h47.011719c-20.113281 0-37.957031 9.683594-49.132813 24.644531-5 6.691407-.085937 16.234375 8.265625 16.234375h95.03125c8.710938 0 15.726563 7.265625 15.3125 16.070313-.390625 8.242187-7.492187 14.585937-15.746093 14.585937h-104.828126c-5.644531 0-10.21875 4.574219-10.21875 10.21875v10.21875c0 5.644532 4.574219 10.222656 10.21875 10.222656h104.828126c8.253906 0 15.355468 6.339844 15.746093 14.585938.414063 8.804688-6.601562 16.070312-15.3125 16.070312zm0 0" fill="#e659a9"/><path d="m403.671875 224.824219h-306.585937c-8.464844 0-15.328126 6.863281-15.328126 15.332031 0 8.464844 6.863282 15.328125 15.328126 15.328125h5.109374c0 81.707031 66.476563 148.179687 148.183594 148.179687 81.707032 0 148.183594-66.472656 148.183594-148.179687h5.109375c8.464844 0 15.332031-6.863281 15.332031-15.328125 0-8.46875-6.867187-15.332031-15.332031-15.332031zm-35.769531 30.660156c0 64.800781-52.71875 117.519531-117.523438 117.519531-64.804687 0-117.523437-52.71875-117.523437-117.519531zm0 0" fill="#015aad"/><path d="m387.320312 240.152344c0 8.46875-6.863281 15.332031-15.328124 15.332031h-132.855469c-8.464844 0-15.328125-6.863281-15.328125-15.332031 0-8.464844 6.863281-15.328125 15.328125-15.328125h132.855469c8.464843 0 15.328124 6.863281 15.328124 15.328125zm0 0" fill="#0573cd"/><path d="m297.390625 362.796875v39.855469c0 14.246094-6.347656 27-16.351563 35.621094v71.855468c-10.050781 1.226563-20.277343 1.871094-30.660156 1.871094-10.378906 0-20.609375-.632812-30.660156-1.859375v-71.867187c-10.003906-8.621094-16.347656-21.375-16.347656-35.621094v-39.855469c0-8.464844 6.863281-15.328125 15.328125-15.328125h63.359375c8.46875 0 15.332031 6.863281 15.332031 15.328125zm0 0" fill="#0573cd"/><path d="m281.039062 475.199219v34.929687c-10.050781 1.226563-18.84375 1.871094-30.660156 1.859375-2.050781-.003906-4.09375-.011719-6.132812-.0625v-36.726562c0-8.464844 6.863281-15.332031 15.332031-15.332031h6.128906c8.46875 0 15.332031 6.867187 15.332031 15.332031zm1.019532-127.742188h-34.746094c-8.464844 0-15.328125 6.863281-15.328125 15.328125v9.199219c0 25.960937 21.046875 47.007813 47.007813 47.007813 5.789062 0 11.332031-1.050782 16.453124-2.964844 1.257813-4.242188 1.945313-8.734375 1.945313-13.386719v-39.855469c0-8.464844-6.863281-15.328125-15.332031-15.328125zm0 0" fill="#528ed7"/><path d="m274.90625 393.445312c0 14.109376-11.4375 25.546876-25.550781 25.546876-14.109375 0-25.546875-11.4375-25.546875-25.546876 0-14.113281 11.4375-25.550781 25.546875-25.550781 14.113281 0 25.550781 11.4375 25.550781 25.550781zm0 0" fill="#b1c9eb"/><path d="m260.597656 393.445312c0 6.207032-5.03125 11.238282-11.242187 11.238282-6.207031 0-11.238281-5.03125-11.238281-11.238282 0-6.210937 5.03125-11.242187 11.238281-11.242187 6.210937 0 11.242187 5.03125 11.242187 11.242187zm0 0" fill="#fff5f5"/></svg>