<?xml version="1.0" encoding="utf-8"?>
<!-- Generator: Adobe Illustrator 23.0.1, SVG Export Plug-In . SVG Version: 6.00 Build 0)  -->
<svg version="1.1" id="Calque_1" xmlns="http://www.w3.org/2000/svg" xmlns:xlink="http://www.w3.org/1999/xlink" x="0px" y="0px"
	 viewBox="0 0 1280 720" style="enable-background:new 0 0 1280 720;" xml:space="preserve">
<style type="text/css">
	.st0{fill:url(#SVGID_1_);}
</style>
<linearGradient id="SVGID_1_" gradientUnits="userSpaceOnUse" x1="1" y1="360" x2="797" y2="360">
	<stop  offset="0" style="stop-color:#FFFFFF"/>
	<stop  offset="0" style="stop-color:#1FF1B1"/>
	<stop  offset="9.573582e-02" style="stop-color:#1DE1B0"/>
	<stop  offset="0.2839" style="stop-color:#17B6AD"/>
	<stop  offset="0.5307" style="stop-color:#0F75A9"/>
	<stop  offset="0.6495" style="stop-color:#0C6896"/>
	<stop  offset="0.8892" style="stop-color:#054865"/>
	<stop  offset="1" style="stop-color:#02374C"/>
</linearGradient>
<path class="st0" d="M333,1c0,0,13.4,61.7,2.5,110.5c-3.6,16.3-3.7,33.4,0.9,49.5c0.2,0.7,0.4,1.4,0.6,2.1c6,19.5,21.5,34.7,41,40.9
	c48.4,15.4,168,54.1,200.5,71.5c0,0,64,26,92,72c0,0,33,41,31,94c0,0-10,98-4,126c0,0,7.2,58.4,53.1,102
	c7.3,6.9,14.2,14.2,20.9,21.7L797,720H1V0L333,1z"/>
</svg>
