<svg height="512pt" viewBox="0 -6 512.0006 512" width="512pt" xmlns="http://www.w3.org/2000/svg"><path d="m39.855469 385.957031c-25.234375-39.121093-39.8984378-85.761719-39.855469-135.789062.113281-137.972657 112.992188-250.480469 250.960938-250.167969 138.011718.3125 249.796874 112.292969 249.796874 250.378906 0 50.304688-14.847656 97.136719-40.382812 136.378906-65.273438-10.449218-136.054688-16.171874-209.996094-16.171874-73.570312 0-144.007812 5.664062-209.007812 16.011718-.601563.097656-1.183594-.128906-1.515625-.640625zm0 0" fill="#df3d9b"/><path d="m440.464844 17.746094v182.246094c-45.921875 53.515624-114.039063 87.421874-190.085938 87.421874s-144.164062-33.90625-190.082031-87.421874v-182.246094c0-3.863282 4.125-6.332032 7.527344-4.5l157.007812 84.410156v-1.59375c0-14.109375 11.4375-25.546875 25.546875-25.546875s25.550782 11.4375 25.550782 25.546875v1.59375l157.003906-84.410156c3.402344-1.832032 7.53125.636718 7.53125 4.5zm0 0" fill="#fdb44c"/><path d="m263.664062 108.167969v392.238281c-4.398437.230469-8.828124.351562-13.285156.351562-88.316406 0-165.949218-45.730468-210.523437-114.800781v-312.664062c0-6.621094 6.199219-11.492188 12.632812-9.933594l197.890625 48.035156zm0 0" fill="#fdd194"/><path d="m70.320312 424.339844c-11.351562-11.746094-21.566406-24.601563-30.464843-38.382813v-312.664062c0-6.621094 6.199219-11.492188 12.632812-9.933594l19.292969 4.683594c-.917969 1.523437-1.460938 3.308593-1.460938 5.25zm0 0" fill="#fdc273"/><path d="m460.902344 385.957031c-44.574219 69.070313-122.203125 114.800781-210.523438 114.800781v-389.363281l197.894532-48.035156c6.433593-1.558594 12.628906 3.3125 12.628906 9.933594zm0 0" fill="#fdf7bd"/><path d="m221.765625 160.566406v10.496094c0 3.296875-3.074219 5.730469-6.28125 4.972656l-143.074219-33.664062c-2.308594-.542969-3.9375-2.601563-3.9375-4.972656v-10.5c0-3.292969 3.070313-5.726563 6.277344-4.972657l143.074219 33.664063c2.308593.542968 3.941406 2.601562 3.941406 4.976562zm-3.941406 82.253906-143.074219-33.664062c-3.207031-.753906-6.277344 1.679688-6.277344 4.972656v10.5c0 2.371094 1.628906 4.429688 3.9375 4.976563l143.074219 33.664062c3.207031.753907 6.28125-1.679687 6.28125-4.976562v-10.5c0-2.371094-1.632813-4.429688-3.941406-4.972657zm0-43.613281-143.074219-33.664062c-3.207031-.757813-6.277344 1.675781-6.277344 4.972656v10.5c0 2.371094 1.628906 4.429687 3.9375 4.972656l143.074219 33.664063c3.207031.753906 6.28125-1.679688 6.28125-4.972656v-10.5c0-2.371094-1.632813-4.429688-3.941406-4.972657zm0 87.230469-143.074219-33.664062c-3.207031-.757813-6.277344 1.675781-6.277344 4.972656v10.5c0 2.371094 1.628906 4.429687 3.9375 4.972656l143.074219 33.664062c3.207031.753907 6.28125-1.679687 6.28125-4.972656v-10.5c0-2.371094-1.632813-4.433594-3.941406-4.972656zm0 87.226562-143.074219-33.664062c-3.207031-.753906-6.277344 1.679688-6.277344 4.976562v10.5c0 2.371094 1.628906 4.429688 3.9375 4.972657l143.074219 33.664062c3.207031.753907 6.28125-1.679687 6.28125-4.972656v-10.5c0-2.371094-1.632813-4.433594-3.941406-4.976563zm0-43.613281-143.074219-33.664062c-3.207031-.753907-6.277344 1.679687-6.277344 4.972656v10.5c0 2.371094 1.628906 4.429687 3.9375 4.972656l143.074219 33.664063c3.207031.757812 6.28125-1.679688 6.28125-4.972656v-10.5c0-2.371094-1.632813-4.429688-3.941406-4.972657zm0 118.441407-38.832031-9.136719c-3.210938-.753907-6.28125 1.679687-6.28125 4.972656v10.5c0 2.371094 1.628906 4.429687 3.9375 4.972656l38.835937 9.140625c3.207031.753906 6.28125-1.679687 6.28125-4.976562v-10.5c0-2.371094-1.632813-4.429688-3.941406-4.972656zm0 0" fill="#fc9368"/><path d="m432.289062 126.898438v10.5c0 2.371093-1.632812 4.429687-3.941406 4.972656l-143.074218 33.664062c-3.207032.757813-6.28125-1.675781-6.28125-4.972656v-10.496094c0-2.371094 1.632812-4.433594 3.941406-4.976562l143.074218-33.664063c3.207032-.753906 6.28125 1.679688 6.28125 4.972657zm-6.28125 82.257812-143.074218 33.664062c-2.308594.542969-3.941406 2.601563-3.941406 4.972657v10.5c0 3.296875 3.074218 5.730469 6.28125 4.976562l143.074218-33.664062c2.308594-.542969 3.941406-2.605469 3.941406-4.976563v-10.5c0-3.292968-3.074218-5.726562-6.28125-4.972656zm0-43.617188-143.074218 33.664063c-2.308594.542969-3.941406 2.605469-3.941406 4.976563v10.5c0 3.292968 3.074218 5.726562 6.28125 4.972656l143.074218-33.664063c2.308594-.542969 3.941406-2.601562 3.941406-4.972656v-10.5c0-3.296875-3.074218-5.730469-6.28125-4.976563zm0 87.234376-143.074218 33.664062c-2.308594.539062-3.941406 2.601562-3.941406 4.972656v10.5c0 3.292969 3.074218 5.726563 6.28125 4.972656l143.074218-33.664062c2.308594-.542969 3.941406-2.605469 3.941406-4.976562v-10.496094c0-3.296875-3.074218-5.730469-6.28125-4.972656zm0 87.226562-143.074218 33.664062c-2.308594.542969-3.941406 2.605469-3.941406 4.976563v10.496094c0 3.296875 3.074218 5.730469 6.28125 4.976562l143.074218-33.664062c2.308594-.542969 3.941406-2.605469 3.941406-4.976563v-10.5c0-3.292968-3.074218-5.726562-6.28125-4.972656zm0-43.613281-143.074218 33.664062c-2.308594.542969-3.941406 2.601563-3.941406 4.972657v10.5c0 3.296874 3.074218 5.730468 6.28125 4.976562l143.074218-33.667969c2.308594-.539062 3.941406-2.601562 3.941406-4.972656v-10.496094c0-3.296875-3.074218-5.730469-6.28125-4.976562zm-104.238281 142.96875-38.835937 9.136719c-2.308594.542968-3.941406 2.601562-3.941406 4.972656v10.5c0 3.296875 3.074218 5.730468 6.28125 4.976562l38.835937-9.140625c2.308594-.539062 3.9375-2.601562 3.9375-4.972656v-10.5c0-3.292969-3.070313-5.726563-6.277344-4.972656zm0 0" fill="#fdd194"/><path d="m503.96875 384.597656c0 57.945313-46.972656 104.917969-104.921875 104.917969-57.945313 0-104.917969-46.972656-104.917969-104.917969 0-57.949218 46.972656-104.921875 104.917969-104.921875 57.949219 0 104.921875 46.972657 104.921875 104.921875zm0 0" fill="#08e092"/><path d="m487.9375 440.351562c-18.5625 29.53125-51.429688 49.164063-88.890625 49.164063-57.945313 0-104.917969-46.972656-104.917969-104.917969 0-37.460937 19.632813-70.328125 49.164063-88.890625-10.15625 16.152344-16.03125 35.265625-16.03125 55.753907 0 57.945312 46.972656 104.921874 104.917969 104.921874 20.492187 0 39.601562-5.878906 55.757812-16.03125zm0 0" fill="#04d481"/><path d="m507.511719 340.929688-109.421875 109.421874c-5.988282 5.988282-15.691406 5.988282-21.679688 0l-48.105468-48.105468c-5.984376-5.984375-5.984376-15.691406 0-21.675782l7.226562-7.226562c5.988281-5.988281 15.691406-5.988281 21.679688 0l26.425781 26.425781c1.996093 1.996094 5.230469 1.996094 7.226562 0l87.742188-87.742187c5.988281-5.988282 15.691406-5.988282 21.679687 0l7.226563 7.222656c5.984375 5.988281 5.984375 15.695312 0 21.679688zm0 0" fill="#fdf7bd"/><path d="m507.511719 319.25c5.984375 5.988281 5.984375 15.695312 0 21.679688l-100.382813 100.382812c-32.414062-11.226562-57.609375-37.898438-66.792968-71.214844 5.59375-2.390625 12.3125-1.316406 16.875 3.246094l26.425781 26.425781c1.996093 1.996094 5.230469 1.996094 7.226562 0l87.742188-87.742187c5.988281-5.988282 15.691406-5.988282 21.679687 0zm0 0" fill="#fff5f5"/></svg>