<?xml version="1.0" encoding="utf-8"?>
<!-- Generator: Adobe Illustrator 23.0.1, SVG Export Plug-In . SVG Version: 6.00 Build 0)  -->
<svg version="1.1" id="Calque_1" xmlns="http://www.w3.org/2000/svg" xmlns:xlink="http://www.w3.org/1999/xlink"
x="0px" y="0px" viewBox="0 0 415 516" style="enable-background:new 0 0 415 516;" xml:space="preserve">
<style type="text/css">
    .st0 {
        fill: url(#SVGID_1_);
    }
</style>
<g>

    <linearGradient id="SVGID_1_" gradientUnits="userSpaceOnUse" x1="0" y1="260" x2="415" y2="260"
        gradientTransform="matrix(1 0 0 -1 0 518)">
        <stop offset="0" style="stop-color:#FFFFFF" />
        <stop offset="0" style="stop-color:#1FF1B1" />
        <stop offset="0.311" style="stop-color:#16AAAC" />
        <stop offset="0.5642" style="stop-color:#0F75A9" />
        <stop offset="0.6745" style="stop-color:#0C6896" />
        <stop offset="0.8972" style="stop-color:#054865" />
        <stop offset="1" style="stop-color:#02374C" />
    </linearGradient>
    <path class="st0" d="M0,516V0h45c0,0,10.6,21.8,1.9,85.4c-4.8,34.4,14,55.7,32.1,67.9c12.1,8.2,26,13.5,40.4,16
c25.1,4.4,81.9,14,117.5,37c35.3,22.8,67.5,49.9,67.5,105.9c0,0-3.3,41.6-3.8,63.7c0,2.6-0.3,5.4-0.4,8c-0.4,5.2-0.5,17,4.5,32.7
c8.4,26.2,26.4,48.4,49.9,62.7L415,516" />
</g>
</svg>