<svg id="Capa_1" enable-background="new 0 0 512.121 512.121" height="512" viewBox="0 0 512.121 512.121" width="512" xmlns="http://www.w3.org/2000/svg"><g><circle cx="208.65" cy="212.464" fill="#dd636e" r="208.65"/><path d="m417.299 212.464c0-115.234-93.416-208.65-208.65-208.65-4.52 0-9.002.16-13.45.443 108.964 6.935 195.199 97.492 195.199 208.206v.437c-.048 23.298-19.147 42.077-42.445 42.077h-158.217v120.328c0 25.983 9.002 43.219 9.789 45.598 119.724 5.099 217.774-90.423 217.774-208.439z" fill="#da4a54"/><circle cx="208.65" cy="212.464" fill="#f4fbff" r="160.165"/><path d="m368.815 212.464c0-88.457-71.708-160.165-160.165-160.165-4.365 0-8.687.181-12.964.524 82.393 6.6 147.202 75.549 147.202 159.641 0 .147 0 .294-.001.441-.063 23.303-19.182 42.073-42.485 42.073h-88.384c-12.305 0-22.281 9.975-22.281 22.281v94.254c2.003.236 4.02.422 6.044.584-.032.002-.063.006-.095.009 94.488 7.569 173.129-67.158 173.129-159.642z" fill="#daf1f4"/><g><path d="m460.965 405.625h-35.119c-4.205 0-7.613-3.408-7.613-7.613v-87.085c0-4.205 3.408-7.613 7.613-7.613h35.119c28.208 0 51.156 22.948 51.156 51.156s-22.948 51.155-51.156 51.155zm-27.506-15.227h27.506c19.811 0 35.929-16.118 35.929-35.929s-16.118-35.929-35.929-35.929h-27.506z" fill="#f4fbff"/></g><path d="m354.88 464.976h-54.664c-49.46 0-89.555-40.095-89.555-89.555v-95.012c0-2.184 1.771-3.955 3.955-3.955h225.865c2.184 0 3.955 1.771 3.955 3.955v95.012c0 49.459-40.096 89.555-89.556 89.555z" fill="#f4fbff"/><path d="m415.067 276.453v98.967c0 49.46-40.095 89.555-89.555 89.555h29.369c49.46 0 89.555-40.095 89.555-89.555v-95.012c0-2.184-1.771-3.955-3.955-3.955z" fill="#daf1f4"/><path d="m411.748 508.307h-168.399c-22.448 0-42.935-12.787-52.797-32.952l-.298-.61c-2.205-4.509 1.078-9.769 6.097-9.769h262.395c5.019 0 8.302 5.26 6.097 9.769l-.298.61c-9.863 20.165-30.35 32.952-52.797 32.952z" fill="#f4fbff"/><path d="m458.746 464.976h-262.395c-5.019 0-8.302 5.26-6.097 9.769l.299.61c1.551 3.171 3.365 6.159 5.408 8.944h228.035c5.019 0 8.302 5.26 6.097 9.768l-.298.61c-2.304 4.711-5.194 9.013-8.547 12.849 18.598-3.044 34.848-14.896 43.297-32.172l.298-.61c2.205-4.509-1.078-9.768-6.097-9.768z" fill="#daf1f4"/><g><g><path d="m208.65 101.851c-4.205 0-7.613-3.408-7.613-7.613v-10.763c0-4.205 3.408-7.613 7.613-7.613s7.613 3.408 7.613 7.613v10.763c0 4.205-3.408 7.613-7.613 7.613z" fill="#365e7d"/></g><g><path d="m292.248 136.479c-1.948 0-3.897-.743-5.384-2.229-2.973-2.974-2.973-7.794 0-10.768l7.61-7.61c2.974-2.972 7.794-2.972 10.768 0 2.973 2.974 2.973 7.794 0 10.768l-7.61 7.61c-1.487 1.485-3.436 2.229-5.384 2.229z" fill="#365e7d"/></g><g><path d="m337.639 220.077h-10.763c-4.205 0-7.613-3.408-7.613-7.613s3.408-7.613 7.613-7.613h10.763c4.205 0 7.613 3.408 7.613 7.613s-3.408 7.613-7.613 7.613z" fill="#365e7d"/></g><g><path d="m117.441 311.286c-1.948 0-3.897-.743-5.384-2.229-2.973-2.974-2.973-7.794 0-10.768l7.61-7.61c2.974-2.972 7.794-2.972 10.768 0 2.973 2.974 2.973 7.794 0 10.768l-7.61 7.61c-1.487 1.486-3.436 2.229-5.384 2.229z" fill="#365e7d"/></g><g><path d="m90.423 220.077h-10.762c-4.205 0-7.613-3.408-7.613-7.613s3.408-7.613 7.613-7.613h10.763c4.205 0 7.613 3.408 7.613 7.613s-3.408 7.613-7.614 7.613z" fill="#365e7d"/></g><g><path d="m125.051 136.479c-1.948 0-3.897-.743-5.384-2.229l-7.61-7.61c-2.973-2.974-2.973-7.794 0-10.768 2.974-2.972 7.794-2.972 10.768 0l7.61 7.61c2.973 2.974 2.973 7.794 0 10.768-1.487 1.485-3.436 2.229-5.384 2.229z" fill="#365e7d"/></g></g><g><path d="m208.648 223.208c-.882 0-1.772-.154-2.633-.471-2.992-1.103-4.978-3.954-4.978-7.142v-72.049c0-4.205 3.408-7.613 7.613-7.613s7.613 3.408 7.613 7.613v51.415l14.109-16.518c2.73-3.196 7.536-3.574 10.734-.845 3.197 2.731 3.575 7.537.845 10.734l-27.512 32.208c-1.476 1.726-3.606 2.668-5.791 2.668z" fill="#2b4d66"/></g></g></svg>