<svg id="Layer_1" enable-background="new 0 0 512 512" height="512" viewBox="0 0 512 512" width="512" xmlns="http://www.w3.org/2000/svg"><g><path d="m132.794 340.063h31.484c4.319 0 7.935 3.273 8.365 7.57l3.363 33.629c.495 4.949-3.392 9.244-8.366 9.243l-29.262-.003z" fill="#d5c6e4"/><path d="m176.006 381.262-3.363-33.629c-.43-4.297-4.046-7.57-8.365-7.57h-23.342c4.319 0 7.935 3.273 8.365 7.57l3.363 33.629c.494 4.935-3.37 9.217-8.323 9.241l23.3.002c4.973 0 8.86-4.294 8.365-9.243z" fill="#c6b4da"/><path d="m142.91 440.942-8.406-134.503v-7.476h-67.252v7.476l8.406 134.503v9.574h67.252z" fill="#7da8ff"/><path d="m134.504 306.439v-7.476h-23.342v7.476l8.406 134.504v9.573h23.342v-9.573z" fill="#7092ff"/><path d="m151.317 247.881h-100.878v50.558c0 4.418 3.582 8 8 8h84.878c4.418 0 8-3.582 8-8z" fill="#f9f5f5"/><path d="m151.317 247.881h-100.878v50.558c0 4.418 3.582 8 8 8h84.878c4.418 0 8-3.582 8-8z" fill="#f9f5f5"/><path d="m127.975 247.881v50.439c0 4.484-3.635 8.119-8.119 8.119h23.342c4.484 0 8.119-3.635 8.119-8.119v-50.439z" fill="#e2d8ec"/><path d="m33.626 239.187-28.979-14.489c-2.848-1.424-4.647-4.335-4.647-7.519v-73.674c0-3.184 1.799-6.095 4.647-7.519l28.979-14.49h21.177v117.691z" fill="#d5c6e4"/><path d="m321.83 325.864-153.7-69.864-25.22-75.658 25.22-75.659 184.942-84.064h10.25v305.245z" fill="#f9f5f5"/><path d="m386.698 230.781c27.857 0 50.439-22.582 50.439-50.439s-22.582-50.439-50.439-50.439h-12.212v100.878z" fill="#d5c6e4"/><path d="m386.698 230.781c27.857 0 50.439-22.582 50.439-50.439s-22.582-50.439-50.439-50.439h-12.212v100.878z" fill="#d5c6e4"/><path d="m386.698 129.903h-12.212v1.247c22.499 5.07 39.309 25.161 39.309 49.192 0 24.03-16.81 44.122-39.309 49.191v1.247h12.212c27.857 0 50.439-22.582 50.439-50.439s-22.582-50.438-50.439-50.438z" fill="#c6b4da"/><g><g><path d="m479.603 280.425c-1.291 0-2.599-.329-3.799-1.021l-29.121-16.813c-3.64-2.102-4.888-6.757-2.786-10.397 2.101-3.642 6.754-4.887 10.397-2.786l29.121 16.813c3.64 2.102 4.888 6.757 2.786 10.397-1.408 2.442-3.967 3.807-6.598 3.807z" fill="#7da8ff"/></g><g><path d="m504.388 187.953h-33.626c-4.204 0-7.611-3.407-7.611-7.611s3.407-7.612 7.611-7.612h33.626c4.204 0 7.612 3.407 7.612 7.612 0 4.204-3.407 7.611-7.612 7.611z" fill="#7da8ff"/></g><g><path d="m450.497 112.296c-2.63 0-5.188-1.365-6.599-3.807-2.102-3.64-.854-8.295 2.786-10.397l29.121-16.814c3.638-2.101 8.294-.855 10.397 2.786 2.102 3.64.854 8.295-2.786 10.397l-29.121 16.814c-1.198.692-2.507 1.021-3.798 1.021z" fill="#7da8ff"/></g></g><path d="m386.698 309.788v-297.576c0-4.643-3.764-8.406-8.406-8.406h-16.813c-4.643 0-8.406 3.764-8.406 8.406v297.576z" fill="#ffdc67"/><path d="m168.13 256h-118.504c-8.837 0-16-7.163-16-16v-119.317c0-8.837 7.163-16 16-16h118.504z" fill="#7da8ff"/><path d="m118.097 197.155h-34.439c-4.418 0-8-3.582-8-8v-17.626c0-4.418 3.582-8 8-8h34.439c4.418 0 8 3.582 8 8v17.626c0 4.418-3.582 8-8 8z" fill="#ffdc67"/><path d="m177.349 508.194h-102.504c-8.837 0-16-7.164-16-16v-35.252c0-8.837 7.163-16 16-16h102.504c8.837 0 16 7.163 16 16v35.252c0 8.837-7.163 16-16 16z" fill="#f9f5f5"/><path d="m454.915 452.621c20.379-17.299 33.163-43.272 32.646-72.216-.883-49.423-41.145-89.774-90.566-90.76-52.417-1.046-95.148 41.534-94.35 93.896.745 48.864 40.042 89.105 88.877 90.96 9.28.352 18.267-.671 26.781-2.872 1.946-.503 4.008-.27 5.805.629l29.173 14.586c3.349 1.675 7.051-1.536 5.867-5.089l-6.708-20.124c-1.077-3.228-.119-6.808 2.475-9.01z" fill="#f9f5f5"/><path d="m398.874 339.295 11.641 23.588c.612 1.241 1.796 2.1 3.165 2.299l26.031 3.783c3.448.501 4.824 4.738 2.329 7.169l-18.836 18.361c-.991.966-1.443 2.357-1.209 3.72l4.447 25.926c.589 3.434-3.015 6.052-6.099 4.431l-23.283-12.241c-1.225-.644-2.688-.644-3.912 0l-23.283 12.241c-3.084 1.621-6.688-.997-6.099-4.431l4.447-25.926c.234-1.363-.218-2.755-1.209-3.72l-18.836-18.361c-2.495-2.432-1.118-6.668 2.329-7.169l26.031-3.783c1.369-.199 2.553-1.059 3.165-2.299l11.641-23.588c1.543-3.123 5.998-3.123 7.54 0z" fill="#ffdc67"/><path d="m177.111 440.943h-23.342c8.968 0 16.238 7.27 16.238 16.238v34.776c0 8.968-7.27 16.238-16.238 16.238h23.342c8.968 0 16.238-7.27 16.238-16.238v-34.777c0-8.968-7.27-16.237-16.238-16.237z" fill="#f9f5f5"/><path d="m58.845 466.956v15.223h134.504v-15.223z" fill="#c6b4da"/><path d="m454.914 452.621c20.379-17.299 33.163-43.272 32.646-72.216-.883-49.423-41.145-89.774-90.566-90.76-4.609-.092-9.142.161-13.578.72 44.855 5.699 79.978 43.917 80.803 90.04.517 28.944-12.267 54.916-32.646 72.216-2.594 2.202-3.551 5.782-2.475 9.01l5.248 15.745 18.934 9.467c3.349 1.675 7.051-1.536 5.867-5.089l-6.708-20.123c-1.076-3.228-.118-6.808 2.475-9.01z" fill="#e2d8ec"/><path d="m442.04 376.135c2.495-2.432 1.118-6.668-2.329-7.169l-26.031-3.782c-1.369-.199-2.553-1.059-3.165-2.299l-11.641-23.588c-1.542-3.124-5.997-3.124-7.538 0l-7.937 16.083 3.704 7.505c.612 1.241 1.796 2.1 3.165 2.299l26.031 3.782c3.447.501 4.824 4.738 2.329 7.169l-18.836 18.361c-.991.966-1.443 2.357-1.209 3.72l3.566 20.791 18.195 9.566c3.083 1.621 6.688-.997 6.099-4.431l-4.447-25.926c-.234-1.363.218-2.755 1.209-3.72z" fill="#ffb957"/></g></svg>