<svg id="Capa_1" enable-background="new 0 0 497 497" height="512" viewBox="0 0 497 497" width="512" xmlns="http://www.w3.org/2000/svg"><g id="_x3C_Group_x3E__33_"><g><path d="m237.125 473.191h-176.396c-4.143 0-7.5-3.357-7.5-7.5s3.357-7.5 7.5-7.5h176.396c4.143 0 7.5 3.357 7.5 7.5s-3.357 7.5-7.5 7.5z" fill="#e6f7fe"/></g><g><path d="m439 187.01c-4.143 0-7.5-3.357-7.5-7.5v-129.114c0-14.66-11.927-26.587-26.587-26.587h-12.475c-14.66 0-26.587 11.927-26.587 26.587v6.306c0 4.143-3.357 7.5-7.5 7.5s-7.5-3.357-7.5-7.5v-6.306c0-22.931 18.656-41.587 41.587-41.587h12.475c22.931 0 41.587 18.656 41.587 41.587v129.114c0 4.143-3.357 7.5-7.5 7.5z" fill="#e6f7fe"/></g><path d="m133.5 337.91h30v89.081h-30z" fill="#e6f7fe"/><path d="m238.5 61.501h-155.383l-19.872 2.303c-5.523 0-10 4.477-10 10l-1.064 38.847c0 5.523 4.477 10 10 10h172.851c5.523 0 10-4.477 10-10l3.468-16.81v-24.34c0-5.523-4.477-10-10-10z" fill="#b78c7a"/><path d="m488.13 256.953v60.458l-6.46 20h-150.54v-80.458z" fill="#5f6c75"/><path d="m488.13 334.163v57.078l-2.545 23.248h-158.455l8.838-36.515-8.838-43.811z" fill="#5f6c75"/><path d="m488.13 391.241v20h-161v-73.83l11.391-7.607 8.609 7.607v48.83c0 2.761 2.239 5 5 5z" fill="#4e5a61"/><path d="m488.13 411.241v56.95l-.885 5.656c0 5.52-4.48 10-10 10l-136.511.34c-5.53 0-10-4.48-10-10l-3.604-62.946z" fill="#5f6c75"/><path d="m488.13 468.191v10c0 5.523-4.477 10-10 10h-141c-5.523 0-10-4.477-10-10v-76.95h20v61.95c0 2.761 2.239 5 5 5z" fill="#4e5a61"/><path d="m450.95 174.511h-23.9c-4.327 0-8.445.895-12.179 2.511-10.893 4.714-16.195 15.391-16.195 28.016v4.349l81.335.004v-4.181c0-4.187.796-8.182-.722-11.818-4.628-11.089-15.573-18.881-28.339-18.881z" fill="#ffe07d"/><path d="m481.64 205.201v4.19l-45.076 9.945-40.204-9.945v-4.19c0-12.62 7.62-23.47 18.51-28.18-1.61 3.74-2.51 7.86-2.51 12.18 0 2.314 1.876 4.19 4.19 4.19h62.74c1.51 3.64 2.35 7.63 2.35 11.81z" fill="#ffd064"/><path d="m389.628 108.783-62.298 1.532c-5.523 0-10-4.477-10-10v-12.368c0-15.829 6.756-27.089 20.4-33.027 4.709-2.049 9.907-3.186 15.37-3.186h10.504c21.292 0 38.553 17.261 38.553 38.553v2.363l-2.53 6.132c.001 5.523-4.476 10.001-9.999 10.001z" fill="#ffe07d"/><path d="m402.16 92.651v10c0 5.53-4.48 10-10 10h-67.61c-5.53 0-10-4.47-10-10v-12.36c0-15.83 9.54-29.43 23.18-35.37-2.05 4.71-3.18 9.91-3.18 15.37v12.36c0 5.53 4.47 10 10 10z" fill="#ffd064"/><path d="m350.543 178.692-33.936-3.654-20.298 3.654h-9.199l-7.631 1.176c-2.761 0-5 2.239-5 5l-1.277 18.766c0 2.761 2.239 5 5 5l71.596-.66c2.761 0 5-2.239 5-5l.745-8.583v-10.699c0-2.761-2.239-5-5-5z" fill="#d5717f"/><path d="m355.54 194.391v10c0 2.76-2.24 5-5 5l-38.146 6.115-35.284-6.115c-2.77 0-5-2.24-5-5v-20.7c0-2.76 2.23-5 5-5h10v10.7c0 2.76 2.23 5 5 5z" fill="#cd5668"/><path d="m365.351 147.998h-61.391l-7.46 1.147c-2.761 0-5 2.239-5 5l-.979 17.866c0 2.761 2.239 5 5 5l68.702-1.42c2.761 0 5-2.239 5-5l1.128-6.9v-10.693c0-2.762-2.239-5-5-5z" fill="#7fcb8f"/><path d="m370.35 163.691v10c0 2.76-2.24 5-5 5h-71.39c-2.76 0-5-2.24-5-5v-20.69c0-2.76 2.24-5 5-5h10v10.69c0 2.76 2.24 5 5 5z" fill="#71bf7e"/><g><path d="m483.13 252.761-460.55 8.833c-5.523 0-10-4.477-10-10v-32.207c0-5.523 4.477-10 10-10h464.42c5.523 0 10 4.477 10 10v16.204l-3.87 7.17c0 5.523-4.477 10-10 10z" fill="#5f6c75"/><path d="m497 232.591v19c0 5.53-4.48 10-10 10h-464.42c-5.52 0-10-4.47-10-10v-32.2c0-5.53 4.48-10 10-10h14v14.2c0 5.53 4.48 9 10 9z" fill="#4e5a61"/></g><g><path d="m82 465.692c0-12.426-10.074-22.5-22.5-22.5-1.987 0-3.914.258-5.749.741-9.641 2.541-14.293 11.319-14.293 21.759 0 12.426 7.241 18.665 19.668 18.665 10.439 0 19.592-3.274 22.133-12.914.483-1.836.741-3.763.741-5.751z" fill="#5f6c75"/><path d="m81.25 471.441c-2.53 9.64-11.31 16.75-21.75 16.75-12.43 0-22.5-10.07-22.5-22.5 0-10.44 7.11-19.22 16.75-21.76-.49 1.84-.75 3.77-.75 5.76 0 12.43 10.07 22.5 22.5 22.5 1.99 0 3.91-.26 5.75-.75z" fill="#4e5a61"/></g><g><path d="m260 465.692c0-12.426-10.074-22.5-22.5-22.5-1.987 0-3.914.258-5.749.741-9.641 2.541-14.591 10.423-14.591 20.863 0 12.426 7.914 21.604 20.34 21.604 10.439 0 19.217-5.316 21.758-14.957.484-1.836.742-3.763.742-5.751z" fill="#5f6c75"/><path d="m259.25 471.441c-2.53 9.64-11.31 16.75-21.75 16.75-12.43 0-22.5-10.07-22.5-22.5 0-10.44 7.11-19.22 16.75-21.76-.49 1.84-.75 3.77-.75 5.76 0 12.43 10.07 22.5 22.5 22.5 1.99 0 3.91-.26 5.75-.75z" fill="#4e5a61"/></g><path d="m163.5 475.692h-30c-2.761 0-5-2.239-5-5l-3.6-40.824c0-2.761 2.239-5 5-5l14.98-1.835h20.131c2.761 0 5 2.239 5 5v30.578l-1.511 12.081c0 2.762-2.239 5-5 5z" fill="#5f6c75"/><path d="m170.01 458.611v15c0 2.76-2.24 5-5 5h-35.11c-2.76 0-5-2.24-5-5v-45.58c0-2.76 2.24-5 5-5h15v30.58c0 2.76 2.24 5 5 5z" fill="#4e5a61"/><path d="m284.564 272.756-53.064.07v-27.569h55c5.523 0 10 4.477 10 10l-1.936 7.5c0 5.521-4.477 9.999-10 9.999z" fill="#ab7b64"/><path d="m68.138 272.783-56.511.34c-5.523 0-10-4.477-10-10l-1.627-7.867c0-5.523 4.477-10 10-10h59.16z" fill="#ab7b64"/><path d="m296.5 255.261v10c0 5.52-4.48 10-10 10h-55v-15h55c4.66 0 8.57-3.19 9.68-7.5.21.8.32 1.63.32 2.5z" fill="#9a6a53"/><path d="m237.5 125.841-101.532-10-76.468 10 9.66 195.452c0 8.284 6.716 15 15 15l134.191 3.383c8.284 0 15-6.716 15-15l4.149-12.806z" fill="#b78c7a"/><path d="m69.16 260.261v15h-59.16c-5.52 0-10-4.48-10-10v-10c0-.87.11-1.7.32-2.5 1.11 4.31 5.02 7.5 9.68 7.5z" fill="#9a6a53"/><path d="m83.5 95.841c-2.761 0-5-2.239-5-5v-19.34c0-5.52 4.48-10 10-10h-30c-5.523 0-10 4.477-10 10v14.34 30c0 5.523 4.477 10 10 10h30 150c5.523 0 10-4.477 10-10v-20z" fill="#ab7b64"/><path d="m89.5 305.871v-190.03h-30v181.03 30c0 8.284 6.716 15 15 15h30 118c8.284 0 15-6.716 15-15v-15h-142c-3.314 0-6-2.687-6-6z" fill="#ab7b64"/><path d="m488.13 317.411v20h-161v-75.82l9.689-5.148 10.311 5.148v50.82c0 2.761 2.239 5 5 5z" fill="#4e5a61"/></g></svg>