<?xml version="1.0" encoding="utf-8"?>
<!-- Generator: Adobe Illustrator 23.0.1, SVG Export Plug-In . SVG Version: 6.00 Build 0)  -->
<svg version="1.1" id="Calque_1" xmlns="http://www.w3.org/2000/svg" xmlns:xlink="http://www.w3.org/1999/xlink" x="0px" y="0px"
	 viewBox="0 0 1920 1080" style="enable-background:new 0 0 1920 1080;" xml:space="preserve">
<style type="text/css">
	.st0{fill:#7289DA;}
</style>
<g>
	<path class="st0" d="M1158,800.4c-131.8,0-263.6,0-395.5,0c-1.4-0.6-2.8-1.3-4.2-1.8c-40.8-14.7-58.6-39.7-58.6-82.6
		c0-118.7-0.1-237.3,0-356c0.1-46.7,33.5-80.2,80.2-80.3c120.2-0.2,240.4,0,360.6-0.1c11.3,0,22.2,1.9,32.7,6.3
		c25.5,10.7,39.2,31.2,47.2,56.6c0,131.8,0,263.6,0,395.5C1211.1,770.3,1190.3,791.1,1158,800.4z M1012.7,410
		c13.3,5.3,25.2,9.6,36.7,14.8c11.5,5.2,23.2,10.5,32.6,19.5c-39.2-19.3-81.1-24.7-123.7-24.3c-42.3,0.4-83.9,7.1-122.5,26.7
		c20.5-18.2,45.7-27.2,70.5-37.3c-2.2-1.3-4-1.9-5.7-1.7c-29.4,3.1-55.9,14-80,30.7c-2.7,1.9-4.9,5-6.4,8
		C788,501.7,772,559.6,771.4,621.2c-0.1,7.4,2.5,13.3,7.5,18.7c17.6,19.2,39.6,29.7,64.8,35.5c15.9,3.7,28,1.2,38.8-12.1
		c6.6-8.2,6.8-10.9-3.2-14.7c-15-5.7-28.3-14.3-38.7-28.6c81.2,41.5,161,41.1,241,0.9c-0.2,4.7-4.3,6.6-7.3,9.2
		c-9.9,8.7-21.1,15.4-33.5,20.2c-2.8,1.1-7.5,1-5.8,6.5c2.9,9.6,18.6,21.2,28.2,20.2c29.7-3.1,55.8-13.8,77-35.6
		c6.3-6.6,9-13.7,8.9-22.8c-0.6-46-13.2-89.4-25.5-133.4c-12-43.3-40.5-64.1-81.1-73.7c-5.2-1.2-10.5-2.7-15.8-3.4
		C1022.5,407.7,1018.3,406.2,1012.7,410z"/>
	<path class="st0" d="M983.2,563.4c0-19.3,15.4-35.7,33.5-35.9c18.4-0.2,34.7,17,34.6,36.2c-0.1,19.8-16.1,36.1-34.9,35.7
		C998.2,599.1,983.2,582.8,983.2,563.4z"/>
	<path class="st0" d="M933.4,563.9c-0.3,19.8-16.4,36-35.1,35.5c-18.2-0.5-33.3-17.1-33-36.3c0.2-19.3,15.7-35.6,33.8-35.6
		C917.5,527.5,933.7,544.7,933.4,563.9z"/>
</g>
</svg>
