<?xml version="1.0" encoding="utf-8"?>
<!-- Generator: Adobe Illustrator 23.0.1, SVG Export Plug-In . SVG Version: 6.00 Build 0)  -->
<svg version="1.1" id="Calque_1" xmlns="http://www.w3.org/2000/svg" xmlns:xlink="http://www.w3.org/1999/xlink" x="0px" y="0px"
	 viewBox="0 0 1920 1080" style="enable-background:new 0 0 1920 1080;" xml:space="preserve">
<style type="text/css">
	.st0{fill:#46178F;}
</style>
<g>
	<path class="st0" d="M746.8,540.8c0-39.5-0.5-79,0.1-118.5c0.8-53.3,37.5-90.4,86.1-94.7c4.5-0.4,8.9-0.9,13.4-0.9
		c77.7,0,155.3-0.4,233,0.3c34.7,0.3,62.9,14.6,81.8,44.7c9.5,15.2,13.9,32.3,13.9,50c0.3,79.5,0.4,159,0,238.5
		c-0.2,46.6-30.6,83.6-74.7,92.5c-8.3,1.7-16.8,2.6-25.3,2.6c-77.3,0-154.7,0.3-232-0.3c-34.5-0.3-62.7-14.1-81.8-43.9
		c-10.1-15.7-14.3-33.4-14.5-51.8C746.5,619.8,746.8,580.3,746.8,540.8z M799.2,539.3c0,40.8,0,81.6,0,122.5c0,3.3-0.2,6.2,4.7,6.3
		c15.1,0.4,30.3,1.2,45.4,1.7c6.6,0.2,6.7,0.1,6.6-6.6c0-26.2,0-52.3-0.2-78.5c0-3.7,1.2-6.2,3.9-8.6c9.3-8.1,18.3-16.5,27.4-24.8
		c4.7-4.3,5.1-4.3,6.9,1.7c11.4,37.1,22.9,74.2,34.1,111.3c1.3,4.3,3.3,5.7,7.7,5.7c12.7-0.2,25.3-0.1,38-0.1c6.2,0,6.2-0.1,4.4-6.3
		c-13.8-47-27.7-93.9-41.5-140.9c-3.8-12.8-3.8-12.8,5.5-22.3c19.5-20.1,38.9-40.3,58.4-60.3c2.9-3,2.2-3.8-1.3-5.1
		c-13.2-4.6-26.4-9.3-39.5-14.2c-3.6-1.3-6-1-8.9,1.6c-24.8,22.5-49.8,44.8-74.7,67.1c-5.2,4.7-10.4,9.4-15.6,14
		c-1,0.8-2,2.3-3.3,1.7c-1.7-0.7-1.1-2.6-1.2-4c-0.1-1.5,0-3,0-4.5c0-31.3-0.1-62.6,0.1-94c0-4.4-1.2-5.4-5.5-4.4
		c-15,3.8-30.1,7.5-45.2,10.8c-4.9,1.1-6.3,3.3-6.2,8.1C799.3,458,799.2,498.6,799.2,539.3z M1083.3,629.3c1.2-0.9,1.2-2,1.3-2.9
		c12.4-74.3,24.6-148.5,37.2-222.7c0.9-5-0.4-6.6-5.2-7.4c-29.4-5.1-58.7-10.4-88-15.7c-6.7-1.2-6.9-1.1-5.2,5.7
		c16.7,67.6,33.3,135.2,50,202.8C1076.7,602.4,1080,615.8,1083.3,629.3z M1078.3,652.4c-4.2,0-8.3,0.1-12.5,0
		c-2.6-0.1-4.4,0.8-5.5,3.3c-3.6,8.1-7.2,16.1-10.9,24.1c-1.1,2.5-1,4.3,1.6,5.8c8,5,16,10.2,23.9,15.4c2.1,1.4,3.9,1.2,6,0
		c7.5-4.3,15.1-8.5,22.7-12.5c2.9-1.5,3.1-3.4,2-6.1c-2.5-6.5-4.8-13.1-7.3-19.6c-4.7-12.3-2.1-10.1-15-10.4
		C1081.6,652.3,1079.9,652.3,1078.3,652.4z"/>
</g>
</svg>
