<?xml version="1.0" encoding="utf-8"?>
<!-- Generator: Adobe Illustrator 23.0.1, SVG Export Plug-In . SVG Version: 6.00 Build 0)  -->
<svg version="1.1" id="Calque_1" xmlns="http://www.w3.org/2000/svg" xmlns:xlink="http://www.w3.org/1999/xlink" x="0px" y="0px"
	 viewBox="0 0 1920 1080" style="enable-background:new 0 0 1920 1080;" xml:space="preserve">
<style type="text/css">
	.st0{fill:#FFFFFF;}
	.st1{fill:#1E88E5;}
	.st2{fill:#4CAF50;}
	.st3{fill:#FBC02D;}
	.st4{fill:#1565C0;}
	.st5{fill:#E53935;}
	.st6{fill:#2E7D32;}
</style>
<path class="st0" d="M1155.5,829.3H764.5c-51.8,0-93.7-42-93.7-93.7V344.5c0-51.8,42-93.7,93.7-93.7h391.1c51.8,0,93.7,42,93.7,93.7
	v391.1C1249.3,787.3,1207.3,829.3,1155.5,829.3z"/>
<rect x="827.1" y="454.9" class="st0" width="170.1" height="170.1"/>
<polygon class="st1" points="731.4,465.6 731.4,614.4 784.6,625.1 837.7,614.4 837.7,465.6 784.6,454.9 "/>
<path class="st2" d="M1092.9,540v148.9c0,17.6-14.3,31.9-31.9,31.9H837.7l-10.6-53.2l10.6-53.2h148.9V540l53.2-10.6L1092.9,540z"/>
<path class="st3" d="M1092.9,391.1V540H986.6v-74.4H837.7l-10.6-53.2l10.6-53.2H1061C1078.6,359.2,1092.9,373.5,1092.9,391.1z"/>
<path class="st4" d="M837.7,614.4v106.3h-74.4c-17.6,0-31.9-14.3-31.9-31.9v-74.4H837.7z"/>
<polygon class="st5" points="837.7,359.2 837.7,465.6 731.4,465.6 "/>
<polygon class="st6" points="1103.5,540 1092.9,629.8 986.6,540 1092.9,450.2 "/>
<path class="st2" d="M1188.6,392.3v295.4c0,8.9-10.4,13.9-17.3,8.3l-78.4-66.1V450.2l78.4-66.1
	C1178.2,378.4,1188.6,383.4,1188.6,392.3z"/>
</svg>
