<?xml version="1.0" encoding="utf-8"?>
<!-- Generator: Adobe Illustrator 23.0.1, SVG Export Plug-In . SVG Version: 6.00 Build 0)  -->
<svg version="1.1" id="Calque_1" xmlns="http://www.w3.org/2000/svg" xmlns:xlink="http://www.w3.org/1999/xlink" x="0px" y="0px"
	 viewBox="0 0 1920 1080" style="enable-background:new 0 0 1920 1080;" xml:space="preserve">
<style type="text/css">
	.st0{fill:#555AAC;}
</style>
<g>
	<path class="st0" d="M705,720c0-118.7,0-237.3,0-356c0.3-1.1,0.6-2.2,0.8-3.4c3.8-23.2,15.1-41.9,33.3-56.6
		c13.2-10.6,28.4-16.3,44.9-19c120,0,240,0,360,0c0.9,0.3,1.9,0.6,2.9,0.8c21.1,4.7,38.1,15.8,51.5,32.7
		c10.4,13.1,16.1,28.1,18.7,44.5c0,118.7,0,237.3,0,356c-0.3,1.3-0.7,2.6-0.9,3.9c-4,23.7-15.8,42.7-34.7,57.3
		c-11.1,8.6-23.8,13.8-37.4,16.8c-123.7,0-247.3,0-371,0c-1.1-0.4-2.2-0.7-3.3-1.1c-30.3-9.9-50.9-29.6-61-60
		C707,730.8,706.2,725.3,705,720z M1055,456.4c-1.5-1.3-1.1-2.5-1.1-3.6c-1.2-29.9-28.8-48.9-57-39.2c-5.5,1.9-5.6,1.8-5.7-4.3
		c0-13,0-26,0-39c0-5.8-1.2-6.7-7-5.6c-12.3,2.2-24.6,4.4-36.9,6.6c-52.5,9.3-104.9,18.7-157.4,27.9c-4.8,0.8-6.6,2.7-6.6,7.8
		c0.1,89.8,0.1,179.7,0,269.5c0,4.5,1.4,6.5,6,7.2c64.8,10.5,129.5,21.1,194.3,31.6c6.8,1.1,7.6,0.5,7.7-6.4c0-13,0.1-26,0-39
		c0-4.4,1.5-6.3,6.2-6.1c7,0.3,14,0.1,21,0c17.6-0.2,31.1-7.6,39.8-23.1c1.6-2.9,3.6-4,6.8-3.9c9.7,0.1,19.3,0.2,29,0
		c22.5-0.5,41.1-18.4,41.9-40.9c0.6-16.3,0.4-32.7,0.4-49c0-11.6-4.2-15.6-15.7-15.6c-17,0-34-0.1-51,0.1c-4.5,0.1-6.1-1.5-6.3-6
		c-0.4-10.8-4.9-15-15.5-15.1c-14.7-0.1-29.3,0.1-44-0.1c-12.9-0.1-12.4,2.2-12.4-12.3c0-6.4,0-6.2,6-4.4
		c16.4,5.1,31.2,2.4,43.9-9.7c4-3.8,6.7-8.5,10.2-13c0.3,12.8,4,24.1,13.1,33.1c9.2,9,20.4,12.7,33.3,12
		c17.3-0.9,33.7-14.7,37.8-32.1c4.6-19.7-4.1-38.8-21.8-48c-8.5-4.4-17.4-5.5-26.7-4C1071.9,434.3,1061.9,443.4,1055,456.4z"/>
	<path class="st0" d="M991.1,587c0-19.3,0-38.6,0-58c0-6.8,0.4-7.2,7-7.2c15.7,0,31.3,0.1,47-0.1c5-0.1,6.8,1.9,6.8,6.8
		c-0.1,30,0.2,60-0.1,90c-0.2,20.7-13.9,33.7-34.7,33.7c-6.2,0-12.3,0-18.5,0c-7,0-7.3-0.3-7.4-7.3c0-0.3,0-0.7,0-1
		C991.1,624.9,991.1,605.9,991.1,587z"/>
	<path class="st0" d="M1063.1,583.7c0-11.3,0-22.6,0-34c0-6.5,0.5-6.9,6.7-6.9c15.8,0,31.6,0,47.5,0c6.7,0,6.9,0.3,6.9,7.2
		c0,14,0,28,0,42c0,19.2-13.2,32.7-32.4,33.2c-7.2,0.2-14.3,0.1-21.5,0c-6.8,0-7.2-0.4-7.2-7
		C1063.1,606.7,1063.1,595.2,1063.1,583.7z"/>
	<path class="st0" d="M899.2,552.5c0,16.5-0.1,33,0.1,49.4c0.1,4.8-1.6,6.8-6.4,6.2c-4.3-0.5-8.6-0.8-12.9-0.9
		c-3.9-0.1-5.3-1.8-5.2-5.5c0.1-10.2,0-20.3,0-30.5c0-22.3,0-44.6,0-66.9c0-6-0.6-6.6-6.7-6.3c-7.3,0.3-14.6,0.6-21.9,1.1
		c-4.3,0.3-6.1-1.3-6.1-5.7c0.3-16.6-2.5-14.5,14.8-15.7c24.2-1.7,48.5-3,72.7-4.8c10.6-0.8,10.6-1,10.6,9.6
		c0,12.4,0,12.3-12.4,12.6c-7,0.1-14,0.9-20.9,0.9c-4.4,0-5.8,1.7-5.8,6C899.3,518.9,899.2,535.7,899.2,552.5z"/>
	<path class="st0" d="M1064.8,473.5c0-16.2,13.5-29.8,29.5-29.6c16.1,0.1,29.6,13.8,29.4,29.8c-0.1,16-13.9,29.6-29.9,29.4
		C1078,503,1064.8,489.5,1064.8,473.5z"/>
	<path class="st0" d="M1011.4,423.8c12.5,0,23.8,7.9,27.9,19.7c4.2,12,0.4,24.9-9.8,33.1c-9.5,7.6-23.2,8.2-33.7,1.6
		c-3.1-2-4.6-4.4-4.6-8.2c0.1-10.7,0.3-21.3-0.1-32c-0.2-5.3,2.1-8.5,6.4-10.7C1001.8,425.1,1006.4,423.8,1011.4,423.8z"/>
</g>
</svg>
