<svg id="Calque_1" data-name="Calque 1" xmlns="http://www.w3.org/2000/svg" viewBox="0 0 882.63 350.27"><path d="M135.9,588c0,21.32-.5,40.76.19,60.16.39,11.13-1.59,16.51-14.75,16.38-12.67-.13-13.74-5.81-13.68-15.82.29-54.08.15-108.15.12-162.23,0-7.68-1.1-15.88,10.6-15.71,9.11.13,19.92-2.51,17.71,15.22,19.33-14,38.53-21.74,60.5-15.81,13.35,3.61,24.62,10.78,33,22.12,19.1,25.75,18.06,66.13-2.48,90.72S178.08,609.76,135.9,588Zm78.47-53c-.2-24.66-16.73-42.86-38.92-42.85S135.88,511.64,136,536.65c.1,25.56,16.91,43.7,40.09,43.26C199.06,579.47,214.58,561.29,214.37,535Z" transform="translate(-107.65 -315)"/><path d="M458.16,586.16c0,23.3-.49,43.21.19,63.09.36,10.65-2,15.43-14,15.23-11-.18-13.54-4.16-13.47-14.28.36-55.16.11-110.32.26-165.48,0-5.39-2.32-13.78,6.93-13.32,7.06.34,17.9-6.81,20.34,7.78,1.82,10.85,7.11,2.42,9.76.68,23.23-15.21,47-16.31,69.89-.86,26.88,18.19,30.9,46,25.28,75.14-5,26-21.1,42.94-47.91,49C494.52,607.77,477.48,599.59,458.16,586.16ZM538,535.55c-.19-24.17-19-44-41-43.35-21.65.68-38.66,19.93-38.79,43.9-.14,25.07,17.21,44.11,40,43.88C520.81,579.75,538.23,560.31,538,535.55Z" transform="translate(-107.65 -315)"/><path d="M814.81,484.88c-.59-17.33,10.85-14.15,20.33-13.94,11.41.26,8.55,9.05,8.58,15.5.19,33.05.26,66.1-.06,99.15-.06,6.62,3.77,16.56-9.2,16.37-9.4-.13-21.1,3.29-19.11-15-18.78,13-36.85,21.32-58.73,15.67-14.34-3.72-25.72-11.11-34.42-22.81-19.42-26.11-17.62-68.81,3.74-92.08C748,463.76,778.49,462.27,814.81,484.88Zm.81,51.13c-.06-25.19-17.5-44.34-39.92-43.83-22,.51-38.65,19.24-38.72,43.46-.07,25.36,16.66,44.18,39.36,44.28C799.55,580,815.69,562,815.62,536Z" transform="translate(-107.65 -315)"/><path d="M366.09,484.35c1.23-8.68,4.09-14.43,14.89-14s15.14,3,14.88,14.77c-.74,33.52-.09,67.06-.39,100.59-.06,6.63,3.73,16.42-9.25,16.25-9.65-.12-21.21,3-18.69-15.53-17.93,12.81-34.87,21.1-55.59,16.92-15-3-27.2-10-36.66-21.93-20.81-26.31-19.92-68.65,2-93.09C299.39,463.72,329.24,462.15,366.09,484.35Zm1.53,51.46c-.25-24.88-18.12-44.23-40.28-43.62S289,511.23,289,535.88c0,25.59,16.57,44.09,39.47,44C351.54,579.87,367.87,561.48,367.62,535.81Z" transform="translate(-107.65 -315)"/><path d="M909.93,523C920,511,931.46,500.05,939.73,487c12.47-19.64,29.39-17.76,50.12-14.25-17.71,19.39-33.79,37.53-50.54,55.05-6.22,6.5-6.33,10.89,0,17.42,16.73,17.41,32.8,35.44,51,55.29-21.55,2.91-38.26,4.1-50.62-15.15-8.27-12.89-20-23.58-33.52-39.13,0,18-.48,31.24.15,44.43.48,9.93-4.37,11.59-12.8,11.51s-14.3-.53-14.2-11.79q.68-76.33,0-152.67c-.11-11.22,5.58-11.63,14.1-11.94,9.94-.35,13.15,3.25,13,13.11-.53,27.47-.19,55-.19,82.44Z" transform="translate(-107.65 -315)"/><path d="M681.87,557.72c0,23.81.25,47.63-.08,71.44-.37,26.48-18.7,40.31-44.65,35-7-1.45-6.95-5.73-6.68-10.58s-2.18-12.44,6.35-12.17c18.76.61,18.71-11.51,18.64-24.91-.26-43.3.08-86.61-.23-129.91-.07-9.78.47-16.15,13.36-16.18,12.69,0,13.68,5.85,13.46,15.88C681.53,510.08,681.87,533.9,681.87,557.72Z" transform="translate(-107.65 -315)"/><path d="M684.79,374.94c-7.54,1.36-11-2.39-13.54-10.79-4.49-15-15.87-22.84-31.65-23s-26.66,7.07-32.78,21.76c-2.29,5.48-2.38,12.27-12,12.38-15.65.17-18.43-2.45-13.77-17.59,8.31-26.93,33.47-44.23,61.87-42.55,26.18,1.56,49.33,20.95,54.48,45.63C700,373.12,698.44,375,684.79,374.94Z" transform="translate(-107.65 -315)"/><path d="M619.62,535.63c0,18.37-.4,36.75.16,55.11.3,10-4.63,11.65-12.93,11.4-7.87-.24-15.05.71-14.92-11.08.41-36.2.34-72.41,0-108.6-.11-11.22,6.61-11.69,14.85-11.74,8-.06,13.37,1.28,13,11.43C619.18,500,619.63,517.8,619.62,535.63Z" transform="translate(-107.65 -315)"/><path d="M605.69,437.38c-11.23-.74-17.4-7.55-17-17.84.43-10.45,7.36-16.62,18.55-15.88,10.31.68,16.07,6.81,16,16.8C623.14,431.33,616.63,437,605.69,437.38Z" transform="translate(-107.65 -315)"/><path d="M686.15,420.29c-1,10.72-6.35,17.1-17.49,17s-16.89-6.83-16.74-17.54c.13-10.13,6.07-15.92,16.4-16.07C679.35,403.47,685.11,409.39,686.15,420.29Z" transform="translate(-107.65 -315)"/></svg>