<svg height="512pt" viewBox="0 0 512 512" width="512pt" xmlns="http://www.w3.org/2000/svg"><path d="m512 256c0 141.386719-114.613281 256-256 256s-256-114.613281-256-256 114.613281-256 256-256 256 114.613281 256 256zm0 0" fill="#ff328e"/><path d="m512 256c0-2.28125-.03125-4.558594-.09375-6.828125l-148.476562-148.476563c-26.597657-29.128906-64.878907-47.402343-107.429688-47.402343-80.328125 0-145.445312 65.117187-145.445312 145.445312 0 39.722657 15.925781 75.714844 41.734374 101.960938l50.753907 50.65625v39.78125h-23.746094c-15.367187 0-27.824219 12.460937-27.824219 27.828125v15.480468l75.957032 75.957032c9.378906 1.042968 18.910156 1.597656 28.570312 1.597656 141.386719 0 256-114.613281 256-256zm0 0" fill="#c50a5b"/><path d="m203.042969 329.574219h105.914062v67.394531h-105.914062zm0 0" fill="#aeadb3"/><path d="m256 329.570312h52.960938v67.398438h-52.960938zm0 0" fill="#8b8992"/><path d="m401.445312 198.738281c0 80.328125-65.117187 145.449219-145.445312 145.449219s-145.445312-65.121094-145.445312-145.449219 65.117187-145.445312 145.445312-145.445312 145.445312 65.117187 145.445312 145.445312zm0 0" fill="#fff"/><path d="m401.449219 198.738281c0 80.332031-65.121094 145.453125-145.449219 145.453125v-290.902344c80.328125 0 145.449219 65.121094 145.449219 145.449219zm0 0" fill="#d9d9db"/><path d="m256 298.113281c54.882812 0 99.371094-44.492187 99.371094-99.371093v-106.195313c-26.003906-24.34375-60.941406-39.253906-99.371094-39.253906s-73.367188 14.910156-99.371094 39.253906v106.191406c0 54.882813 44.488282 99.375 99.371094 99.375zm0 0" fill="#e1e1e3"/><path d="m355.371094 92.550781v106.1875c0 54.882813-44.492188 99.371094-99.371094 99.371094v-244.820313c38.429688 0 73.371094 14.910157 99.371094 39.261719zm0 0" fill="#aeadb3"/><path d="m318.40625 198.738281c0 34.46875-27.9375 62.410157-62.40625 62.410157s-62.40625-27.941407-62.40625-62.410157c0-34.464843 27.9375-62.40625 62.40625-62.40625s62.40625 27.941407 62.40625 62.40625zm0 0" fill="#8b8992"/><path d="m318.410156 198.738281c0 34.472657-27.941406 62.410157-62.410156 62.410157v-124.820313c34.46875 0 62.410156 27.941406 62.410156 62.410156zm0 0" fill="#57555c"/><path d="m286.945312 198.738281c0 17.09375-13.855468 30.949219-30.945312 30.949219s-30.945312-13.855469-30.945312-30.949219c0-17.089843 13.855468-30.945312 30.945312-30.945312s30.945312 13.855469 30.945312 30.945312zm0 0" fill="#3c3b41"/><path d="m286.949219 198.738281c0 17.089844-13.859375 30.953125-30.949219 30.953125v-61.902344c17.089844 0 30.949219 13.859376 30.949219 30.949219zm0 0" fill="#171719"/><path d="m244.207031 182.0625c0 7.878906-6.386719 14.265625-14.269531 14.265625-7.878906 0-14.265625-6.386719-14.265625-14.265625 0-7.882812 6.386719-14.269531 14.265625-14.269531 7.882812 0 14.269531 6.386719 14.269531 14.269531zm0 0" fill="#fff"/><path d="m360.527344 434.445312h-209.054688v-15.480468c0-15.367188 12.457032-27.824219 27.824219-27.824219h153.40625c15.367187 0 27.824219 12.457031 27.824219 27.824219zm0 0" fill="#fff"/><path d="m360.53125 418.960938v15.488281h-104.53125v-43.308594h76.699219c15.371093 0 27.832031 12.460937 27.832031 27.820313zm0 0" fill="#d9d9db"/></svg>